<svg width="591" height="921" viewBox="0 0 591 921" fill="none" xmlns="http://www.w3.org/2000/svg">
<rect width="591" height="921" rx="16" fill="#F36623"/>
<mask id="mask0_381_86" style="mask-type:alpha" maskUnits="userSpaceOnUse" x="0" y="24" width="591" height="897">
<rect y="24" width="591" height="897" rx="16" fill="#F36623"/>
</mask>
<g mask="url(#mask0_381_86)">
<path d="M145.175 756.984L155.134 774.233H205.783V773.369H155.632L146.172 756.984H145.175Z" fill="#4E1C05"/>
<path d="M258.117 637.196L258.239 636.986H333.549L370.517 701.029H369.531L333.061 637.85H258.738L221.582 702.203L238.808 732.048H237.822L220.717 702.425L220.585 702.203L258.117 637.196Z" fill="#4E1C05"/>
<path d="M241.423 781.81H242.42L242.353 781.91L268.852 827.818H321.861L332.463 809.461H333.449L322.36 828.671H268.365L241.367 781.91L241.423 781.81Z" fill="#4E1C05"/>
<path d="M418.943 733.698L419.142 733.355L388.345 680.024H389.342L420.128 733.355L419.929 733.698H418.943Z" fill="#4E1C05"/>
<path d="M299.84 733.355L330.626 680.024H331.612L300.826 733.355L331.191 785.932H330.194L299.84 733.355Z" fill="#4E1C05"/>
<path d="M311.505 656.827L311.638 656.617H344.773V657.47H312.125L268.344 733.311L312.125 809.141H392.52V809.994H311.638L267.48 733.521L267.358 733.311L311.505 656.827Z" fill="#4E1C05"/>
<path d="M396.628 753.772L440.774 830.256L440.907 830.478L410.819 882.578H409.833L439.91 830.478L396.129 754.637H312.467V753.772H396.628Z" fill="#4E1C05"/>
<path d="M487.27 899.461L530.564 824.462L487.27 749.451V747.768H487.281L531.439 824.251L531.561 824.462L487.403 900.946L487.281 901.156H487.27V899.461Z" fill="#4E1C05"/>
<path d="M376.333 878.203H319.624L288.383 932.309L319.624 986.426H376.333V987.279H319.125L287.386 932.309L319.125 877.339H376.333V878.203Z" fill="#4E1C05"/>
<path d="M262.427 932.519L262.305 932.309L301.91 863.712H302.896L263.291 932.309L300.392 996.562H299.395L262.427 932.519Z" fill="#4E1C05"/>
<path d="M459.287 864.964L483.183 823.554L459.209 782.033H412.172V781.168H459.708L484.18 823.554L460.273 864.964H459.287Z" fill="#4E1C05"/>
<path d="M368.345 824.085H369.342L402.809 882.046H470.054L503.676 823.819L470.054 765.581H402.809L402.787 765.604V764.717H470.552L504.54 823.598L504.662 823.819L470.674 882.689L470.552 882.91H402.311L368.345 824.085Z" fill="#4E1C05"/>
<path d="M487.267 906.108C490.934 906.108 493.914 903.139 493.914 899.461C493.914 895.783 490.945 892.814 487.267 892.814C483.589 892.814 480.62 895.783 480.62 899.461C480.62 903.139 483.589 906.108 487.267 906.108Z" fill="#4E1C05"/>
<path d="M460.546 869.185C463.294 869.185 465.521 866.958 465.521 864.211C465.521 861.464 463.294 859.237 460.546 859.237C457.799 859.237 455.572 861.464 455.572 864.211C455.572 866.958 457.799 869.185 460.546 869.185Z" fill="#4E1C05"/>
<path d="M391.552 814.791C394.366 814.791 396.648 812.508 396.648 809.695C396.648 806.881 394.366 804.599 391.552 804.599C388.739 804.599 386.457 806.881 386.457 809.695C386.457 812.508 388.739 814.791 391.552 814.791Z" fill="#4E1C05"/>
<path d="M405.875 924.841C408.689 924.841 410.971 922.559 410.971 919.745C410.971 916.932 408.689 914.649 405.875 914.649C403.061 914.649 400.779 916.932 400.779 919.745C400.779 922.559 403.061 924.841 405.875 924.841Z" fill="#4E1C05"/>
<path d="M205.783 768.838C208.53 768.838 210.757 771.065 210.757 773.812C210.757 776.559 208.53 778.786 205.783 778.786C203.035 778.786 200.809 776.559 200.809 773.812C200.809 771.065 203.035 768.838 205.783 768.838Z" fill="#4E1C05"/>
<path d="M145.441 760.64C143.422 760.64 141.785 759.003 141.785 756.984C141.785 754.965 143.422 753.329 145.441 753.329C147.46 753.329 149.097 754.965 149.097 756.984C149.097 759.003 147.46 760.64 145.441 760.64Z" fill="#4E1C05"/>
<path d="M419.922 738.064C417.512 738.064 415.558 736.109 415.558 733.699C415.558 731.288 417.512 729.334 419.922 729.334C422.333 729.334 424.287 731.288 424.287 733.699C424.287 736.109 422.333 738.064 419.922 738.064Z" fill="#4E1C05"/>
<path d="M376.33 879.609C377.581 879.609 378.601 878.59 378.601 877.338C378.601 876.087 377.581 875.067 376.33 875.067C375.078 875.067 374.059 876.087 374.059 877.338C374.059 878.59 375.078 879.609 376.33 879.609Z" fill="#4E1C05"/>
<path d="M368.342 825.747C367.021 825.747 365.95 824.676 365.95 823.354C365.95 822.033 367.021 820.961 368.342 820.961C369.664 820.961 370.735 822.033 370.735 823.354C370.735 824.676 369.664 825.747 368.342 825.747Z" fill="#4E1C05"/>
<path d="M241.973 784.502C243.225 784.502 244.244 783.483 244.244 782.231C244.244 780.98 243.225 779.96 241.973 779.96C240.721 779.96 239.702 780.98 239.702 782.231C239.702 783.483 240.721 784.502 241.973 784.502Z" fill="#4E1C05"/>
<path d="M369.605 702.481C370.857 702.481 371.876 701.461 371.876 700.209C371.876 698.958 370.857 697.938 369.605 697.938C368.353 697.938 367.334 698.958 367.334 700.209C367.334 701.461 368.353 702.481 369.605 702.481Z" fill="#4E1C05"/>
<path d="M330.754 788.204C332.006 788.204 333.025 787.185 333.025 785.933C333.025 784.681 332.006 783.662 330.754 783.662C329.503 783.662 328.483 784.681 328.483 785.933C328.483 787.185 329.503 788.204 330.754 788.204Z" fill="#4E1C05"/>
<path d="M331.075 682.805C332.814 682.805 334.221 681.398 334.221 679.659C334.221 677.92 332.814 676.513 331.075 676.513C329.335 676.513 327.928 677.92 327.928 679.659C327.928 681.398 329.335 682.805 331.075 682.805Z" fill="#4E1C05"/>
<path d="M301.908 865.983C303.16 865.983 304.179 864.964 304.179 863.712C304.179 862.46 303.16 861.441 301.908 861.441C300.656 861.441 299.637 862.46 299.637 863.712C299.637 864.964 300.656 865.983 301.908 865.983Z" fill="#4E1C05"/>
<path d="M388.594 682.96C390.134 682.96 391.386 681.708 391.386 680.168C391.386 678.628 390.134 677.376 388.594 677.376C387.054 677.376 385.802 678.628 385.802 680.168C385.802 681.708 387.054 682.96 388.594 682.96Z" fill="#4E1C05"/>
<path d="M199.058 611.24C200.31 611.24 201.329 610.221 201.329 608.969C201.329 607.717 200.31 606.698 199.058 606.698C197.806 606.698 196.787 607.717 196.787 608.969C196.787 610.221 197.806 611.24 199.058 611.24Z" fill="#4E1C05"/>
<path d="M246.372 618.186C247.623 618.186 248.643 617.167 248.643 615.915C248.643 614.663 247.623 613.644 246.372 613.644C245.12 613.644 244.101 614.663 244.101 615.915C244.101 617.167 245.12 618.186 246.372 618.186Z" fill="#4E1C05"/>
<path d="M-6.57587 770.832L17.3198 812.231H56.459V813.084H16.8323L-7.56181 770.832H-6.57587Z" fill="#4E1C05"/>
<path d="M12.8112 644.331L27.8997 670.476H26.9026L11.8141 644.331L38.8117 597.57H92.8067L119.594 643.955H118.597L92.3193 598.434H39.3102L12.8112 644.331Z" fill="#4E1C05"/>
<path d="M24.4102 586.47H25.4072L-8.23719 644.741L16.6777 687.88H16.0462V688.5L-9.10129 644.952L-9.22313 644.741L24.4102 586.47Z" fill="#4E1C05"/>
<path d="M26.282 669.943L26.4039 669.722H101.713L130.55 719.673H129.553L101.215 670.586H26.9024L-10.2538 734.95L25.4401 796.777H24.4541L-11.1179 735.16L-11.2509 734.95L26.282 669.943Z" fill="#4E1C05"/>
<path d="M37.2281 860.555H90.0267L108.339 828.838H109.336L90.5252 861.408H37.2281V860.555Z" fill="#4E1C05"/>
<path d="M151.012 786.52L195.169 863.003L195.291 863.214L151.953 938.279H150.956L194.294 863.214L150.513 787.373H66.8617V786.52H151.012Z" fill="#4E1C05"/>
<path d="M227.383 840.492L251.224 881.78L227.317 923.19H226.331L250.227 881.78L226.386 840.492H227.383Z" fill="#4E1C05"/>
<path d="M167.628 910.473V909.698L174.917 922.327H242.162L275.784 864.089L242.616 806.648H243.613L276.659 863.878L276.781 864.089L242.782 922.969L242.66 923.191H174.419L167.085 910.473H167.628Z" fill="#4E1C05"/>
<path d="M227.021 836.183C224.639 836.183 222.711 838.11 222.711 840.492C222.711 842.874 224.639 844.801 227.021 844.801C229.402 844.801 231.33 842.874 231.33 840.492C231.33 838.11 229.402 836.183 227.021 836.183Z" fill="#4E1C05"/>
<path d="M24.4562 792.469C22.0744 792.469 20.1468 794.396 20.1468 796.778C20.1468 799.16 22.0744 801.088 24.4562 801.088C26.838 801.088 28.7656 799.16 28.7656 796.778C28.7656 794.396 26.838 792.469 24.4562 792.469Z" fill="#4E1C05"/>
<path d="M118.541 638.659C116.159 638.659 114.232 640.587 114.232 642.969C114.232 645.35 116.159 647.278 118.541 647.278C120.923 647.278 122.851 645.35 122.851 642.969C122.851 640.587 120.923 638.659 118.541 638.659Z" fill="#4E1C05"/>
<path d="M24.7208 582.493C22.339 582.493 20.4115 584.42 20.4115 586.802C20.4115 589.184 22.339 591.111 24.7208 591.111C27.1027 591.111 29.0303 589.184 29.0303 586.802C29.0303 584.42 27.1027 582.493 24.7208 582.493Z" fill="#4E1C05"/>
<path d="M147.855 822.036C144.188 822.036 141.208 825.005 141.208 828.683C141.208 832.361 144.177 835.33 147.855 835.33C151.533 835.33 154.502 832.361 154.502 828.683C154.502 825.005 151.533 822.036 147.855 822.036Z" fill="#4E1C05"/>
<path d="M487.268 744.179C485.285 744.179 483.679 745.786 483.679 747.769C483.679 749.752 485.285 751.358 487.268 751.358C489.251 751.358 490.857 749.752 490.857 747.769C490.857 745.786 489.251 744.179 487.268 744.179Z" fill="#4E1C05"/>
<path d="M241.974 801.652C239.991 801.652 238.385 803.258 238.385 805.241C238.385 807.224 239.991 808.831 241.974 808.831C243.957 808.831 245.563 807.224 245.563 805.241C245.563 803.258 243.957 801.652 241.974 801.652Z" fill="#4E1C05"/>
<path d="M37.229 864.643C35.2467 864.643 33.6397 863.036 33.6397 861.053C33.6397 859.071 35.2467 857.464 37.229 857.464C39.2114 857.464 40.8184 859.071 40.8184 861.053C40.8184 863.036 39.2114 864.643 37.229 864.643Z" fill="#4E1C05"/>
<path d="M336.095 877.925L359.99 919.324H405.876V920.177H359.492L335.098 877.925H336.095Z" fill="#4E1C05"/>
<path d="M29.6405 479.21L29.7624 479H105.072L142.051 543.043H141.054L104.584 479.864H30.2609L-6.89528 544.217L8.9465 571.658H7.96053L-7.75938 544.439L-7.88126 544.217L29.6405 479.21Z" fill="#4E1C05"/>
<path d="M198.526 608.98L167.74 555.65H168.737L199.523 608.98H198.526Z" fill="#4E1C05"/>
<path d="M78.8711 598.179H77.874L64.7021 575.369L95.4883 522.039H96.4854L65.6991 575.369L78.8711 598.179Z" fill="#4E1C05"/>
<path d="M168.151 595.786L212.309 672.27L212.431 672.491L177.878 732.336V730.674H177.845L211.434 672.491L167.653 596.65H122.642V595.786H168.151Z" fill="#4E1C05"/>
<path d="M90.6477 719.353H147.855V720.217H91.1463L59.9058 774.322L91.1463 828.428H147.855V829.292H90.6477L58.9088 774.322L90.6477 719.353Z" fill="#4E1C05"/>
<path d="M33.9494 774.533L33.8275 774.322L73.432 705.726H74.418L34.8245 774.322L71.9143 838.564H70.9173L33.9494 774.533Z" fill="#4E1C05"/>
<path d="M279.144 673.367L245.987 615.926H246.973L280.019 673.156L280.141 673.367L246.142 732.247L246.02 732.458H177.789L143.824 673.632H144.81L178.277 731.605H245.521L279.144 673.367Z" fill="#4E1C05"/>
<path d="M144.752 669.601C142.37 669.601 140.443 671.528 140.443 673.91C140.443 676.292 142.37 678.219 144.752 678.219C147.134 678.219 149.062 676.292 149.062 673.91C149.062 671.528 147.134 669.601 144.752 669.601Z" fill="#4E1C05"/>
<path d="M168.736 552.593C166.355 552.593 164.427 554.52 164.427 556.902C164.427 559.284 166.355 561.212 168.736 561.212C171.118 561.212 173.046 559.284 173.046 556.902C173.046 554.52 171.118 552.593 168.736 552.593Z" fill="#4E1C05"/>
<path d="M147.855 715.042C145.473 715.042 143.545 716.97 143.545 719.352C143.545 721.734 145.473 723.661 147.855 723.661C150.236 723.661 152.164 721.734 152.164 719.352C152.164 716.97 150.236 715.042 147.855 715.042Z" fill="#4E1C05"/>
<path d="M122.95 591.754C120.569 591.754 118.641 593.682 118.641 596.063C118.641 598.445 120.569 600.373 122.95 600.373C125.332 600.373 127.26 598.445 127.26 596.063C127.26 593.682 125.332 591.754 122.95 591.754Z" fill="#4E1C05"/>
<path d="M141.627 539.21C139.245 539.21 137.318 541.138 137.318 543.519C137.318 545.901 139.245 547.829 141.627 547.829C144.009 547.829 145.937 545.901 145.937 543.519C145.937 541.138 144.009 539.21 141.627 539.21Z" fill="#4E1C05"/>
<path d="M42.2238 494.432C39.842 494.432 37.9144 496.36 37.9144 498.742C37.9144 501.123 39.842 503.051 42.2238 503.051C44.6056 503.051 46.5332 501.123 46.5332 498.742C46.5332 496.36 44.6056 494.432 42.2238 494.432Z" fill="#4E1C05"/>
<path d="M74.4156 699.08C70.7487 699.08 67.7687 702.049 67.7687 705.726C67.7687 709.404 70.7376 712.373 74.4156 712.373C78.0935 712.373 81.0625 709.404 81.0625 705.726C81.0625 702.049 78.0935 699.08 74.4156 699.08Z" fill="#4E1C05"/>
<path d="M96.4849 515.392C92.8181 515.392 89.838 518.361 89.838 522.039C89.838 525.716 92.807 528.685 96.4849 528.685C100.163 528.685 103.132 525.716 103.132 522.039C103.132 518.361 100.163 515.392 96.4849 515.392Z" fill="#4E1C05"/>
<path d="M8.09058 568.977C6.60611 568.977 5.40965 570.173 5.40965 571.658C5.40965 573.142 6.60611 574.339 8.09058 574.339C9.57506 574.339 10.7715 573.142 10.7715 571.658C10.7715 570.173 9.57506 568.977 8.09058 568.977Z" fill="#4E1C05"/>
<path d="M70.3628 834.554C69.1109 834.554 68.0918 835.573 68.0918 836.825C68.0918 838.077 69.1109 839.096 70.3628 839.096C71.6146 839.096 72.6338 838.077 72.6338 836.825C72.6338 835.573 71.6146 834.554 70.3628 834.554Z" fill="#4E1C05"/>
</g>
</svg>
