<svg width="40" height="41" viewBox="0 0 40 41" fill="none" xmlns="http://www.w3.org/2000/svg">
<circle opacity="0.16" cx="20" cy="20.4878" r="20" fill="#F36623"/>
<mask id="mask0_130_674" style="mask-type:alpha" maskUnits="userSpaceOnUse" x="4" y="4" width="32" height="33">
<rect x="4" y="4.48779" width="32" height="32" fill="#D9D9D9"/>
</mask>
<g mask="url(#mask0_130_674)">
<path d="M9.33366 31.1546C8.60033 31.1546 7.97255 30.8935 7.45033 30.3713C6.9281 29.8491 6.66699 29.2213 6.66699 28.488V12.488C6.66699 11.7546 6.9281 11.1268 7.45033 10.6046C7.97255 10.0824 8.60033 9.82129 9.33366 9.82129H30.667C31.4003 9.82129 32.0281 10.0824 32.5503 10.6046C33.0725 11.1268 33.3337 11.7546 33.3337 12.488V28.488C33.3337 29.2213 33.0725 29.8491 32.5503 30.3713C32.0281 30.8935 31.4003 31.1546 30.667 31.1546H9.33366ZM20.0003 21.8213L9.33366 15.1546V28.488H30.667V15.1546L20.0003 21.8213ZM20.0003 19.1546L30.667 12.488H9.33366L20.0003 19.1546ZM9.33366 15.1546V12.488V28.488V15.1546Z" fill="#F36623"/>
</g>
</svg>
