<svg width="1920" height="1330" viewBox="0 0 1920 1330" fill="none" xmlns="http://www.w3.org/2000/svg">
<g clip-path="url(#clip0_266_2)">
<rect width="1920" height="1330" fill="#100F0F"/>
<g filter="url(#filter0_d_266_2)">
<rect x="0.000976562" y="0.000244141" width="1920" height="1330.67" fill="#141313"/>
<path d="M6.47397 737.087C14.9031 734.95 20.0662 726.629 18.006 718.501C15.9458 710.373 7.44246 705.516 -0.986707 707.652C-9.41587 709.789 -14.5789 718.11 -12.5187 726.238C-10.4585 734.366 -1.95519 739.223 6.47397 737.087Z" fill="#F36623"/>
<path d="M64.1978 342.295C67.9156 341.352 70.208 337.742 69.318 334.231C68.428 330.72 64.6926 328.637 60.9748 329.579C57.257 330.522 54.9646 334.132 55.8546 337.643C56.7446 341.155 60.48 343.237 64.1978 342.295Z" fill="#F36623"/>
<path d="M213.456 304.076C216.47 303.312 219.524 305.131 220.288 308.146C221.052 311.16 219.233 314.214 216.219 314.978C213.204 315.742 210.151 313.923 209.387 310.909C208.622 307.894 210.441 304.84 213.456 304.076Z" fill="#F36623"/>
<path d="M149.173 581.417C157 579.434 161.799 571.724 159.891 564.198C157.984 556.672 150.092 552.179 142.265 554.163C134.438 556.147 129.639 563.856 131.547 571.382C133.454 578.908 141.346 583.401 149.173 581.417Z" fill="#F36623"/>
<path d="M248.207 253.501C256.034 251.517 260.771 243.563 258.787 235.736C256.803 227.909 248.85 223.172 241.023 225.156C233.196 227.14 228.459 235.093 230.443 242.92C232.427 250.747 240.38 255.484 248.207 253.501Z" fill="#F36623"/>
<path d="M46.1265 433.504C50.6446 432.359 55.1681 434.846 56.237 439.063C57.3058 443.28 54.5131 447.622 49.995 448.767C45.4769 449.912 40.9533 447.425 39.8844 443.208C38.8156 438.991 41.6084 434.65 46.1265 433.504Z" fill="#F36623"/>
<path d="M173.345 340.361C179.373 338.833 183.022 332.707 181.494 326.679C179.966 320.65 173.84 317.002 167.811 318.53C161.783 320.058 158.134 326.184 159.662 332.212C161.19 338.241 167.316 341.889 173.345 340.361Z" fill="#F36623"/>
<path d="M189.949 378.413C195.03 377.126 198.105 371.963 196.817 366.882C195.529 361.802 190.367 358.727 185.286 360.015C180.205 361.303 177.131 366.465 178.419 371.546C179.706 376.626 184.869 379.701 189.949 378.413Z" fill="#F36623"/>
<path d="M46.3364 347.395C52.2496 345.103 55.1908 338.499 52.9059 332.644C50.621 326.789 43.9752 323.9 38.0621 326.192C32.149 328.485 29.2078 335.089 31.4927 340.944C33.7776 346.799 40.4233 349.688 46.3364 347.395Z" fill="#F36623"/>
<path d="M214.84 309.528L62.7236 336.482" stroke="#F36623" stroke-opacity="0.32" stroke-width="2" stroke-linecap="round"/>
<path d="M145.579 567.246L62.7236 336.482" stroke="#F36623" stroke-opacity="0.32" stroke-width="2" stroke-linecap="round"/>
<path d="M244.615 239.327L214.839 309.526" stroke="#F36623" stroke-opacity="0.32" stroke-width="2" stroke-linecap="round"/>
<path d="M47.5146 441.272L62.7207 336.48" stroke="#F36623" stroke-opacity="0.32" stroke-width="2" stroke-linecap="round"/>
<path d="M2.60764 721.824L145.579 567.244" stroke="#F36623" stroke-opacity="0.32" stroke-width="2" stroke-linecap="round"/>
<path d="M145.576 567.245L47.5146 441.274" stroke="#F36623" stroke-opacity="0.32" stroke-width="2" stroke-linecap="round"/>
<path d="M2.61048 721.824L47.5208 441.273" stroke="#F36623" stroke-opacity="0.32" stroke-width="2" stroke-linecap="round"/>
<path d="M170.172 330.129L214.839 309.525" stroke="#F36623" stroke-opacity="0.32" stroke-width="2" stroke-linecap="round"/>
<path d="M170.172 330.129L244.614 239.327" stroke="#F36623" stroke-opacity="0.32" stroke-width="2" stroke-linecap="round"/>
<path d="M187.21 369.899L214.835 309.527" stroke="#F36623" stroke-opacity="0.32" stroke-width="2" stroke-linecap="round"/>
<path d="M170.17 330.13L47.5144 441.273" stroke="#F36623" stroke-opacity="0.32" stroke-width="2" stroke-linecap="round"/>
<path d="M244.612 239.329L187.211 369.899" stroke="#F36623" stroke-opacity="0.32" stroke-width="2" stroke-linecap="round"/>
<path d="M335.555 236.819C339.768 235.751 344.053 238.303 345.12 242.516C346.188 246.728 343.636 251.013 339.424 252.081C335.211 253.149 330.926 250.597 329.858 246.384C328.79 242.171 331.342 237.886 335.555 236.819Z" fill="#F36623"/>
<path d="M244.955 238.531L338.796 245.86" stroke="#F36623" stroke-opacity="0.32" stroke-width="2" stroke-linecap="round"/>
<path d="M120.293 302.358C117.782 298.811 118.623 293.895 122.17 291.384C125.717 288.873 130.633 289.713 133.144 293.261C135.655 296.808 134.814 301.724 131.267 304.235C127.72 306.746 122.804 305.905 120.293 302.358Z" fill="#F36623"/>
<path d="M250.75 233.87L126.741 297.435" stroke="#F36623" stroke-opacity="0.32" stroke-width="2" stroke-linecap="round"/>
<path d="M187.215 369.898L47.5181 441.273" stroke="#F36623" stroke-opacity="0.32" stroke-width="2" stroke-linecap="round"/>
<path d="M145.579 567.244L-41.8154 482.479" stroke="#F36623" stroke-opacity="0.32" stroke-width="2" stroke-linecap="round"/>
<path d="M2.60536 721.825L-41.8177 482.48" stroke="#F36623" stroke-opacity="0.32" stroke-width="2" stroke-linecap="round"/>
<path d="M47.5172 441.272L-41.8162 482.478" stroke="#F36623" stroke-opacity="0.32" stroke-width="2" stroke-linecap="round"/>
<path d="M170.173 330.13L187.214 369.899" stroke="#F36623" stroke-opacity="0.32" stroke-width="2" stroke-linecap="round"/>
<path d="M2.60694 721.824L-221.884 637.18" stroke="#F36623" stroke-opacity="0.32" stroke-width="2" stroke-linecap="round"/>
<path d="M41.9932 337.094L170.171 330.13" stroke="#F36623" stroke-opacity="0.32" stroke-width="2" stroke-linecap="round"/>
<path d="M41.9932 337.094L187.212 369.898" stroke="#F36623" stroke-opacity="0.32" stroke-width="2" stroke-linecap="round"/>
<path d="M41.9937 337.094L-41.8174 482.479" stroke="#F36623" stroke-opacity="0.32" stroke-width="2" stroke-linecap="round"/>
<path d="M41.993 337.095L-36.5596 338.442" stroke="#F36623" stroke-opacity="0.32" stroke-width="2" stroke-linecap="round"/>
<path d="M17.4318 416.413C19.5331 415.881 21.6819 417.161 22.2145 419.262C22.7471 421.363 21.4674 423.512 19.3661 424.045C17.2647 424.577 15.116 423.298 14.5833 421.196C14.0507 419.095 15.3305 416.946 17.4318 416.413Z" fill="#F36623" fill-opacity="0.32"/>
<path d="M57.722 559.348C60.1308 558.738 62.5774 560.195 63.188 562.603C63.7985 565.012 62.3414 567.459 59.9326 568.069C57.5239 568.68 55.0771 567.223 54.4666 564.814C53.8561 562.405 55.3133 559.959 57.722 559.348Z" fill="#F36623" fill-opacity="0.32"/>
<path d="M132.6 518.325C135.311 517.638 138.062 519.276 138.749 521.987C139.436 524.698 137.798 527.449 135.087 528.136C132.376 528.823 129.625 527.185 128.938 524.474C128.251 521.763 129.889 519.012 132.6 518.325Z" fill="#F36623" fill-opacity="0.32"/>
<path d="M168.062 603.313C170.77 602.626 173.525 604.267 174.211 606.975C174.898 609.684 173.257 612.438 170.549 613.124C167.84 613.811 165.086 612.171 164.4 609.462C163.713 606.753 165.353 603.999 168.062 603.313Z" fill="#F36623" fill-opacity="0.32"/>
<path d="M76.5261 471.046C77.4264 470.818 78.3482 471.367 78.5764 472.267C78.8046 473.168 78.2556 474.089 77.3553 474.317C76.455 474.546 75.5334 473.997 75.3052 473.096C75.077 472.196 75.6258 471.274 76.5261 471.046Z" fill="#F36623" fill-opacity="0.32"/>
<path d="M179.107 225.766C180.618 225.383 182.145 226.306 182.523 227.801C182.902 229.296 181.984 230.838 180.489 231.217C178.994 231.596 177.452 230.677 177.073 229.182C176.694 227.687 177.612 226.145 179.107 225.766Z" fill="#F36623" fill-opacity="0.32"/>
<path d="M147.934 704.711C150.944 703.948 152.766 700.889 152.003 697.879C151.24 694.868 148.181 693.046 145.171 693.809C142.16 694.572 140.338 697.631 141.101 700.642C141.864 703.652 144.923 705.474 147.934 704.711Z" fill="#F36623" fill-opacity="0.32"/>
<path d="M254.118 478.24C257.129 477.477 258.951 474.418 258.188 471.408C257.425 468.397 254.366 466.576 251.355 467.339C248.345 468.102 246.523 471.161 247.286 474.171C248.049 477.181 251.108 479.003 254.118 478.24Z" fill="#F36623" fill-opacity="0.32"/>
<path d="M184.304 482.015C187.314 481.252 189.136 478.193 188.373 475.182C187.61 472.172 184.551 470.35 181.541 471.113C178.53 471.876 176.708 474.935 177.471 477.945C178.234 480.956 181.293 482.778 184.304 482.015Z" fill="#F36623" fill-opacity="0.32"/>
<path d="M-12.198 1315.64C-19.4717 1313.3 -23.5381 1305.71 -21.2806 1298.7C-19.023 1291.69 -11.2964 1287.9 -4.02267 1290.24C3.25101 1292.58 7.31734 1300.16 5.05978 1307.18C2.80222 1314.19 -4.92436 1317.98 -12.198 1315.64Z" fill="#F36623"/>
<path d="M34.572 1094.63C34.9868 1089.34 39.6461 1085.41 44.9789 1085.85C50.3118 1086.29 54.2986 1090.93 53.8838 1096.22C53.4691 1101.51 48.8097 1105.45 43.4769 1105.01C38.1441 1104.57 34.1573 1099.92 34.572 1094.63Z" fill="#F36623"/>
<path d="M49.7684 961.837C46.1332 960.667 42.2339 962.668 41.0638 966.303C39.8937 969.938 41.8941 973.838 45.5294 975.008C49.1646 976.178 53.0639 974.177 54.234 970.542C55.4041 966.907 53.4037 963.008 49.7684 961.837Z" fill="#F36623"/>
<path d="M-7.96186 1302.47L-124.771 1158.98" stroke="#F36623" stroke-opacity="0.32" stroke-width="2" stroke-linecap="round"/>
<path d="M-7.96439 1302.47L-31.7894 1053.94" stroke="#F36623" stroke-opacity="0.32" stroke-width="2" stroke-linecap="round"/>
<path d="M-124.773 1158.98L44.2695 1095.03" stroke="#F36623" stroke-opacity="0.32" stroke-width="2" stroke-linecap="round"/>
<path d="M-7.96054 1302.47L44.2722 1095.03" stroke="#F36623" stroke-opacity="0.32" stroke-width="2" stroke-linecap="round"/>
<path d="M-31.7863 1053.94L44.2716 1095.03" stroke="#F36623" stroke-opacity="0.32" stroke-width="2" stroke-linecap="round"/>
<path d="M-7.96123 1302.47L193.606 1240.69" stroke="#F36623" stroke-opacity="0.32" stroke-width="2" stroke-linecap="round"/>
<path d="M-21.1646 962.884L44.2722 1095.03" stroke="#F36623" stroke-opacity="0.32" stroke-width="2" stroke-linecap="round"/>
<path d="M193.608 1240.69L44.273 1095.03" stroke="#F36623" stroke-opacity="0.32" stroke-width="2" stroke-linecap="round"/>
<path d="M47.6456 968.423L44.2684 1095.03" stroke="#F36623" stroke-opacity="0.32" stroke-width="2" stroke-linecap="round"/>
<path d="M-21.1656 962.885L47.6484 968.423" stroke="#F36623" stroke-opacity="0.32" stroke-width="2" stroke-linecap="round"/>
<mask id="mask0_266_2" style="mask-type:alpha" maskUnits="userSpaceOnUse" x="-1" y="-1" width="1921" height="1332">
<rect x="-0.000976562" y="-0.000244141" width="1920" height="1330.67" fill="#D9D9D9"/>
</mask>
<g mask="url(#mask0_266_2)">
<g opacity="0.95" filter="url(#filter1_f_266_2)">
<ellipse cx="379.613" cy="622.327" rx="379.613" ry="622.327" transform="matrix(0.825117 -0.564962 0.61451 0.788909 839.999 356.933)" fill="#240801"/>
</g>
<g opacity="0.95" filter="url(#filter2_f_266_2)">
<ellipse cx="325.867" cy="644.226" rx="325.867" ry="644.226" transform="matrix(0.825117 -0.564962 0.61451 0.788909 637.902 549.538)" fill="#F36623"/>
</g>
<g opacity="0.95" filter="url(#filter3_f_266_2)">
<ellipse cx="344.745" cy="197.707" rx="344.745" ry="197.707" transform="matrix(0.825117 -0.564962 0.61451 0.788909 381.333 884.356)" fill="#FDD7D1"/>
</g>
</g>
</g>
<path d="M305.681 703.592C308.235 703.592 310.305 701.522 310.305 698.968C310.305 696.414 308.235 694.344 305.681 694.344C303.127 694.344 301.057 696.414 301.057 698.968C301.057 701.522 303.127 703.592 305.681 703.592Z" fill="#F36623" fill-opacity="0.32"/>
</g>
<defs>
<filter id="filter0_d_266_2" x="-287.421" y="0.000244141" width="2212.76" height="1341.33" filterUnits="userSpaceOnUse" color-interpolation-filters="sRGB">
<feFlood flood-opacity="0" result="BackgroundImageFix"/>
<feColorMatrix in="SourceAlpha" type="matrix" values="0 0 0 0 0 0 0 0 0 0 0 0 0 0 0 0 0 0 127 0" result="hardAlpha"/>
<feOffset dy="5.33333"/>
<feGaussianBlur stdDeviation="2.66667"/>
<feComposite in2="hardAlpha" operator="out"/>
<feColorMatrix type="matrix" values="0 0 0 0 0 0 0 0 0 0 0 0 0 0 0 0 0 0 0.25 0"/>
<feBlend mode="normal" in2="BackgroundImageFix" result="effect1_dropShadow_266_2"/>
<feBlend mode="normal" in="SourceGraphic" in2="effect1_dropShadow_266_2" result="shape"/>
</filter>
<filter id="filter1_f_266_2" x="691.309" y="-252.468" width="1688.69" height="1771.79" filterUnits="userSpaceOnUse" color-interpolation-filters="sRGB">
<feFlood flood-opacity="0" result="BackgroundImageFix"/>
<feBlend mode="normal" in="SourceGraphic" in2="BackgroundImageFix" result="shape"/>
<feGaussianBlur stdDeviation="175" result="effect1_foregroundBlur_266_2"/>
</filter>
<filter id="filter2_f_266_2" x="474.058" y="-17.0288" width="1657.21" height="1781.4" filterUnits="userSpaceOnUse" color-interpolation-filters="sRGB">
<feFlood flood-opacity="0" result="BackgroundImageFix"/>
<feBlend mode="normal" in="SourceGraphic" in2="BackgroundImageFix" result="shape"/>
<feGaussianBlur stdDeviation="175" result="effect1_foregroundBlur_266_2"/>
</filter>
<filter id="filter3_f_266_2" x="127.888" y="246.029" width="1318.79" height="1199.07" filterUnits="userSpaceOnUse" color-interpolation-filters="sRGB">
<feFlood flood-opacity="0" result="BackgroundImageFix"/>
<feBlend mode="normal" in="SourceGraphic" in2="BackgroundImageFix" result="shape"/>
<feGaussianBlur stdDeviation="175" result="effect1_foregroundBlur_266_2"/>
</filter>
<clipPath id="clip0_266_2">
<rect width="1920" height="1330" fill="white"/>
</clipPath>
</defs>
</svg>
