<svg width="48" height="48" viewBox="0 0 48 48" fill="none" xmlns="http://www.w3.org/2000/svg">
<circle cx="24" cy="24" r="24" fill="#F36623" fill-opacity="0.16"/>
<mask id="mask0_267_388" style="mask-type:alpha" maskUnits="userSpaceOnUse" x="12" y="12" width="24" height="24">
<rect x="12" y="12" width="24" height="24" fill="#D9D9D9"/>
</mask>
<g mask="url(#mask0_267_388)">
<path d="M24 19C22.9 19 21.9583 19.3917 21.175 20.175C20.3917 20.9583 20 21.9 20 23C20 24.1 20.3917 25.0417 21.175 25.825C21.9583 26.6083 22.9 27 24 27C25.1 27 26.0417 26.6083 26.825 25.825C27.6083 25.0417 28 24.1 28 23C28 21.9 27.6083 20.9583 26.825 20.175C26.0417 19.3917 25.1 19 24 19ZM24 25C23.45 25 22.9792 24.8042 22.5875 24.4125C22.1958 24.0208 22 23.55 22 23C22 22.45 22.1958 21.9792 22.5875 21.5875C22.9792 21.1958 23.45 21 24 21C24.55 21 25.0208 21.1958 25.4125 21.5875C25.8042 21.9792 26 22.45 26 23C26 23.55 25.8042 24.0208 25.4125 24.4125C25.0208 24.8042 24.55 25 24 25ZM28 29C28.2833 29 28.5208 28.9042 28.7125 28.7125C28.9042 28.5208 29 28.2833 29 28C29 27.7167 28.9042 27.4792 28.7125 27.2875C28.5208 27.0958 28.2833 27 28 27C27.7167 27 27.4792 27.0958 27.2875 27.2875C27.0958 27.4792 27 27.7167 27 28C27 28.2833 27.0958 28.5208 27.2875 28.7125C27.4792 28.9042 27.7167 29 28 29ZM16 34V19C16 17.6167 16.4875 16.4375 17.4625 15.4625C18.4375 14.4875 19.6167 14 21 14H27C28.3833 14 29.5625 14.4875 30.5375 15.4625C31.5125 16.4375 32 17.6167 32 19V34H16ZM18 30H30V19C30 18.1667 29.7083 17.4583 29.125 16.875C28.5417 16.2917 27.8333 16 27 16H21C20.1667 16 19.4583 16.2917 18.875 16.875C18.2917 17.4583 18 18.1667 18 19V30Z" fill="#F36623"/>
</g>
</svg>
