<svg width="157" height="148" viewBox="0 0 157 148" fill="none" xmlns="http://www.w3.org/2000/svg">
<path d="M93.1814 88.1426C92.3207 88.0934 91.5829 88.6098 91.3124 89.3968L89.9107 93.5283C89.6402 94.3152 89.9353 95.2006 90.6484 95.6678L94.0422 97.9057C94.0422 98.6189 94.0914 99.3321 94.1897 100.045L91.1403 102.701C90.5009 103.242 90.3287 104.152 90.6976 104.915L92.6404 108.825C93.0093 109.562 93.8454 109.981 94.657 109.808L98.6163 108.997C99.1082 109.513 99.6492 109.981 100.215 110.399L99.9443 114.432C99.8951 115.268 100.412 116.03 101.199 116.301L105.33 117.702C105.527 117.776 105.724 117.801 105.92 117.801C106.535 117.801 107.101 117.506 107.47 116.965L109.707 113.571C110.519 113.596 111.134 113.522 111.847 113.423L114.503 116.473C115.044 117.112 115.954 117.284 116.716 116.916L120.626 114.973C121.389 114.604 121.782 113.768 121.61 112.956L120.799 108.997C121.315 108.505 121.782 107.964 122.2 107.398L126.233 107.669C127.07 107.743 127.832 107.202 128.102 106.415L129.504 102.283C129.775 101.496 129.48 100.611 128.766 100.144L125.373 97.9057C125.373 97.1925 125.324 96.4793 125.225 95.7662L128.275 93.1102C128.914 92.5692 129.086 91.6593 128.717 90.8969L126.774 86.9867C126.406 86.249 125.569 85.8309 124.758 86.003L120.799 86.8146C120.307 86.2981 119.766 85.8309 119.2 85.4128L119.446 81.3797C119.495 80.5436 118.979 79.7812 118.192 79.5107L114.06 78.1089C113.273 77.8384 112.388 78.1335 111.921 78.8467L109.683 82.2404H109.658C108.945 82.2404 108.257 82.2896 107.543 82.388L104.887 79.3385C104.346 78.6991 103.412 78.527 102.674 78.8959L98.7639 80.8387C98.0015 81.2075 97.6081 82.0437 97.7802 82.8552L98.5917 86.8146C98.0753 87.3064 97.6081 87.8475 97.19 88.4131L93.1814 88.1426ZM99.6984 91.3396C100.313 90.4051 101.026 89.5689 101.863 88.8557C102.379 88.4131 102.6 87.7491 102.453 87.0851L101.715 83.4946L103.068 82.8306L105.478 85.585C105.92 86.1014 106.609 86.3227 107.248 86.1752C108.33 85.9539 109.412 85.8801 110.544 85.9539C111.257 85.9785 111.847 85.6833 112.216 85.1177L114.232 82.0437L115.659 82.5355L115.413 86.1998C115.364 86.8638 115.683 87.5032 116.249 87.8721C117.184 88.4869 118.02 89.2 118.733 90.0362C119.175 90.528 119.839 90.7739 120.503 90.6264L124.094 89.8886L124.758 91.2412L122.028 93.6758C121.536 94.1185 121.29 94.7825 121.438 95.4465C121.659 96.5285 121.733 97.6352 121.659 98.7418C121.61 99.4058 121.93 100.045 122.495 100.414L125.569 102.431L125.078 103.857L121.413 103.611C120.749 103.562 120.11 103.882 119.741 104.447C119.126 105.382 118.413 106.218 117.577 106.931C117.061 107.374 116.839 108.038 116.987 108.702L117.725 112.292L116.372 112.956L113.962 110.202C113.519 109.685 112.855 109.464 112.191 109.612C111.109 109.833 110.003 109.907 108.896 109.833C108.207 109.784 107.593 110.103 107.224 110.669L105.207 113.719L103.781 113.227L104.027 109.562C104.076 108.898 103.756 108.259 103.19 107.89C102.256 107.275 101.42 106.562 100.707 105.726C100.264 105.21 99.5754 104.988 98.936 105.136L95.3456 105.874L94.6816 104.521L97.4359 102.111C97.9278 101.668 98.1737 101.004 98.0261 100.34C97.7556 99.2583 97.6818 98.1516 97.7556 97.045C97.8048 96.381 97.4851 95.7416 96.9195 95.3727L93.87 93.3561L94.3619 91.9298L98.0261 92.1757C98.7393 92.2003 99.3295 91.9052 99.6984 91.3396Z" fill="#F36623"/>
<path d="M107.077 105.75C107.937 106.045 108.847 106.193 109.733 106.193C110.987 106.193 112.241 105.898 113.397 105.332C115.389 104.348 116.864 102.652 117.553 100.561C118.266 98.4709 118.119 96.2084 117.135 94.241C116.151 92.2491 114.454 90.7735 112.364 90.0604C108.036 88.6094 103.339 90.9457 101.863 95.2739C100.412 99.5776 102.748 104.275 107.077 105.75ZM105.355 96.4298C105.995 94.5116 107.79 93.3065 109.708 93.3065C110.2 93.3065 110.692 93.3803 111.159 93.5525C112.315 93.9459 113.274 94.7575 113.815 95.8641C114.356 96.9708 114.454 98.2004 114.061 99.3808C113.667 100.561 112.856 101.496 111.749 102.037C110.643 102.578 109.413 102.676 108.232 102.283C105.847 101.422 104.544 98.8152 105.355 96.4298Z" fill="#F36623"/>
<path d="M31.8976 47.2701L36.0045 46.434C36.5209 46.975 37.1111 47.4669 37.7014 47.9095L37.4062 52.0902C37.3571 52.9263 37.8735 53.6887 38.6604 53.9592L42.9149 55.3856C43.1117 55.4594 43.3084 55.4839 43.5051 55.4839C44.1199 55.4839 44.6856 55.1888 45.0544 54.6478L47.3661 51.1311C48.1777 51.1557 48.8662 51.0819 49.604 50.9836L52.3584 54.156C52.8994 54.7954 53.8093 54.9675 54.5717 54.5986L58.5802 52.6066C59.3426 52.2378 59.736 51.4016 59.5639 50.5901L58.7277 46.4832C59.2688 45.9667 59.7606 45.3765 60.2033 44.7863L64.384 45.0814C65.1955 45.1552 65.9825 44.6142 66.253 43.8272L67.7039 39.5727C67.9744 38.7858 67.6793 37.9005 66.9662 37.4332L63.4495 35.1215C63.4495 34.3592 63.4003 33.6214 63.3019 32.8836L66.4743 30.1293C67.1137 29.5883 67.2859 28.6784 66.917 27.916L64.925 23.9075C64.5561 23.1697 63.72 22.7516 62.9084 22.9238L58.8015 23.7599C58.2851 23.2189 57.6949 22.727 57.1047 22.2844L57.3998 18.0791C57.449 17.2429 56.9325 16.4806 56.1456 16.2101L51.8911 14.7837C51.1041 14.5132 50.2188 14.8083 49.7516 15.5215L47.4399 19.0382C47.4153 19.0382 47.4153 19.0382 47.3907 19.0382C46.6529 19.0382 45.9152 19.0874 45.202 19.1857L42.4477 16.0133C41.9066 15.3739 40.9967 15.2018 40.2344 15.5707L36.2258 17.5626C35.4635 17.9315 35.07 18.7677 35.2421 19.5792L36.0783 23.6861C35.5372 24.2026 35.0454 24.7928 34.6027 25.383L30.3974 25.0879C29.5121 25.0633 28.7989 25.5551 28.5284 26.3421L27.1021 30.5966C26.8316 31.3835 27.1267 32.2688 27.8398 32.7361L31.3565 35.0478C31.3565 35.8101 31.4057 36.5479 31.5041 37.2857L28.3317 40.04C27.6923 40.581 27.5201 41.4909 27.889 42.2533L29.881 46.2618C30.2499 47.0488 31.0614 47.4669 31.8976 47.2701ZM31.0368 30.449L31.5533 28.8997L35.3651 29.1456C36.0783 29.1702 36.6685 28.8751 37.0374 28.3095C37.6768 27.3504 38.4145 26.4896 39.2753 25.7273C39.7917 25.2846 40.013 24.6206 39.8655 23.9566L39.1031 20.2186L40.5786 19.4808L43.0871 22.3581C43.5297 22.85 44.1937 23.0713 44.8577 22.9484C45.9889 22.7024 47.1202 22.6287 48.276 22.727C48.94 22.7516 49.5794 22.4565 49.9483 21.8909L52.0387 18.6939L53.588 19.2103L53.342 23.0221C53.2929 23.6861 53.6126 24.3255 54.1782 24.6944C55.1373 25.3338 55.998 26.0716 56.7604 26.9323C57.203 27.4487 57.867 27.6701 58.531 27.5225L62.269 26.7602L63.0068 28.2357L60.1295 30.7441C59.6131 31.1868 59.3917 31.8508 59.5393 32.5148C59.7606 33.6214 59.859 34.7772 59.7606 35.9331C59.7114 36.5971 60.0311 37.2365 60.5968 37.6054L63.7938 39.6957L63.2773 41.245L59.4655 40.9745C58.8015 40.9499 58.1621 41.245 57.7932 41.8106C57.1538 42.7697 56.4161 43.6305 55.5553 44.3928C55.0389 44.8355 54.8176 45.4995 54.9651 46.1635L55.7275 49.9015L54.252 50.6393L51.7435 47.762C51.3009 47.2455 50.6123 47.0242 49.9729 47.1717C48.8662 47.3931 47.7104 47.4915 46.5546 47.3931C45.866 47.3439 45.2512 47.6636 44.8823 48.2292L42.792 51.4262L41.1935 50.9344L41.4394 47.1226C41.4886 46.4586 41.1689 45.8192 40.6032 45.4503C39.6441 44.8109 38.7834 44.0731 38.021 43.2124C37.5784 42.7205 36.9144 42.4746 36.2504 42.6222L32.5124 43.3845L31.7746 41.909L34.6519 39.4006C35.1438 38.9579 35.3897 38.2939 35.2421 37.6299C34.9962 36.4987 34.9224 35.3675 35.0208 34.2116C35.07 33.5476 34.7503 32.9082 34.1847 32.5393L31.0368 30.449Z" fill="#F36623"/>
<path d="M44.6854 43.114C45.5707 43.4091 46.4806 43.5566 47.3905 43.5566C50.9318 43.5566 54.2518 41.3187 55.4322 37.7775C56.9323 33.3508 54.5223 28.5308 50.0957 27.0552C45.6691 25.5797 40.849 27.9651 39.3735 32.3917C37.8733 36.8184 40.2588 41.6384 44.6854 43.114ZM42.8656 33.5722C43.5295 31.5802 45.3986 30.326 47.3905 30.326C47.907 30.326 48.3988 30.3998 48.9153 30.5719C51.4237 31.4081 52.7517 34.1378 51.9155 36.6216C51.0794 39.1054 48.3496 40.4826 45.8658 39.6219C43.382 38.7857 42.0294 36.056 42.8656 33.5722Z" fill="#F36623"/>
<path d="M25.4299 87.2079H19.1834C15.6667 87.2079 12.7403 84.5765 12.3714 81.0844L10.7975 65.9356C10.7237 65.2716 10.3056 64.6814 9.69081 64.4354L4.52644 62.2467C4.01 62.0254 3.81326 61.6073 3.76408 61.386C3.6903 61.1401 3.64112 60.6974 3.96081 60.2302L14.5601 44.9092C14.8552 44.4911 14.9536 43.9501 14.8306 43.4336C14.806 43.2861 11.3631 28.211 18.9867 16.8248C23.3887 10.2341 30.6926 6.07796 40.6771 4.47947C53.834 2.38912 64.2611 4.74998 71.688 11.5129C80.492 19.5299 82.9758 31.8753 82.4348 40.0153C81.9429 47.2208 78.1311 52.6066 74.4423 57.7955C73.1881 59.5416 71.9093 61.3614 70.8026 63.1812C70.6059 63.5009 70.5567 63.8452 70.5567 64.1895H52.4814C49.4073 64.1895 46.8989 66.6979 46.8989 69.772V79.904C46.8989 80.9123 47.7351 81.7484 48.7434 81.7484C49.7516 81.7484 50.5878 80.9123 50.5878 79.904V69.772C50.5878 68.7391 51.4239 67.8784 52.4814 67.8784H139.636C140.669 67.8784 141.53 68.7145 141.53 69.772V125.228C141.53 126.26 140.669 127.121 139.636 127.121H52.4814C51.4485 127.121 50.5878 126.285 50.5878 125.228V112.956C50.5878 111.948 49.7516 111.112 48.7434 111.112C47.7351 111.112 46.8989 111.948 46.8989 112.956V125.228C46.8989 128.302 49.4073 130.81 52.4814 130.81H139.636C142.71 130.81 145.219 128.302 145.219 125.228V69.7228C145.219 66.6487 142.71 64.1403 139.636 64.1403H74.5161C75.426 62.7386 76.3851 61.3368 77.418 59.8859C81.2298 54.5493 85.5334 48.4751 86.099 40.212C86.6892 31.2605 83.9103 17.6363 74.1472 8.75852C65.835 1.1841 54.3504 -1.49646 40.0623 0.790625C29.0204 2.56127 20.8803 7.25839 15.8881 14.759C8.36283 26.0223 10.3794 39.8923 11.0434 43.4336L0.911372 58.0906C0.0260494 59.3448 -0.219873 60.9187 0.198195 62.3943C0.616264 63.8698 1.67373 65.0502 3.07549 65.6405L7.23159 67.4111L8.68253 81.4779C9.24815 86.8636 13.7485 90.9213 19.1588 90.9213H23.5855L23.6592 103.955C23.6592 104.964 24.4954 105.8 25.5037 105.8C26.5119 105.8 27.3481 104.964 27.3481 103.955L27.2743 89.1015C27.2743 88.0194 26.4382 87.2079 25.4299 87.2079Z" fill="#F36623"/>
<path d="M154.318 134.253H37.7751C36.7668 134.253 35.9307 135.089 35.9307 136.097V139.27C35.9307 144.09 39.8408 148 44.6609 148H147.432C152.252 148 156.162 144.09 156.162 139.27V136.097C156.162 135.089 155.326 134.253 154.318 134.253ZM152.473 139.27C152.473 142.049 150.211 144.311 147.432 144.311H44.6609C41.882 144.311 39.6195 142.049 39.6195 139.27V137.942H152.473V139.27Z" fill="#F36623"/>
<path d="M126.578 61.6563C127.586 61.6563 128.422 60.8202 128.422 59.8119V43.581H133.218C134.029 46.4829 136.685 48.647 139.833 48.647C143.645 48.647 146.743 45.5484 146.743 41.7366C146.743 37.9248 143.645 34.8262 139.833 34.8262C136.661 34.8262 134.029 36.9657 133.218 39.8922H126.578C125.57 39.8922 124.733 40.7283 124.733 41.7366V59.8119C124.733 60.8202 125.57 61.6563 126.578 61.6563ZM139.833 38.515C141.604 38.515 143.055 39.966 143.055 41.7366C143.055 43.5072 141.604 44.9582 139.833 44.9582C138.062 44.9582 136.611 43.5072 136.611 41.7366C136.611 39.966 138.062 38.515 139.833 38.515Z" fill="#F36623"/>
<path d="M75.4257 88.8553C76.434 88.8553 77.2701 88.0192 77.2701 87.0109C77.2701 86.0026 76.434 85.1665 75.4257 85.1665H56.1208C55.1125 85.1665 54.2764 86.0026 54.2764 87.0109C54.2764 88.0192 55.1125 88.8553 56.1208 88.8553H75.4257Z" fill="#F36623"/>
<path d="M37.0865 97.7826H75.4258C76.4341 97.7826 77.2702 96.9465 77.2702 95.9382C77.2702 94.9299 76.4341 94.0938 75.4258 94.0938H38.9309V80.1254C41.636 79.3138 43.628 76.8546 43.628 73.8789C43.628 70.2639 40.7015 67.3374 37.0865 67.3374C33.4714 67.3374 30.5449 70.2639 30.5449 73.8789C30.5449 76.83 32.5369 79.3138 35.242 80.1254V95.9382C35.242 96.9465 36.0782 97.7826 37.0865 97.7826ZM34.2338 73.8789C34.2338 72.305 35.5126 71.0262 37.0865 71.0262C38.6604 71.0262 39.9392 72.305 39.9392 73.8789C39.9392 75.4283 38.7096 76.6579 37.1848 76.7071C37.1602 76.7071 37.1357 76.6825 37.0865 76.6825C37.0373 76.6825 37.0127 76.7071 36.9881 76.7071C35.4634 76.6579 34.2338 75.4037 34.2338 73.8789Z" fill="#F36623"/>
<path d="M43.628 120.014C43.628 117.063 41.636 114.579 38.9309 113.767V106.168H65.9578C66.9661 106.168 67.8022 105.332 67.8022 104.324C67.8022 103.316 66.9661 102.479 65.9578 102.479H37.0865C36.0782 102.479 35.242 103.316 35.242 104.324V113.767C32.5369 114.579 30.5449 117.038 30.5449 120.014C30.5449 123.629 33.4714 126.555 37.0865 126.555C40.7015 126.555 43.628 123.629 43.628 120.014ZM34.2338 120.014C34.2338 118.44 35.5126 117.161 37.0865 117.161C38.6604 117.161 39.9392 118.44 39.9392 120.014C39.9392 121.588 38.6604 122.866 37.0865 122.866C35.5126 122.866 34.2338 121.588 34.2338 120.014Z" fill="#F36623"/>
<path d="M115.929 28.2113V58.6074C115.929 59.6156 116.765 60.4518 117.774 60.4518C118.782 60.4518 119.618 59.6156 119.618 58.6074V28.2113C122.52 27.3998 124.684 24.7438 124.684 21.596C124.684 17.7842 121.586 14.6855 117.774 14.6855C113.962 14.6855 110.863 17.7842 110.863 21.596C110.863 24.7438 113.003 27.3998 115.929 28.2113ZM117.774 18.3744C119.544 18.3744 120.995 19.8253 120.995 21.596C120.995 23.3666 119.544 24.8176 117.774 24.8176C116.003 24.8176 114.552 23.3666 114.552 21.596C114.552 19.8007 116.003 18.3744 117.774 18.3744Z" fill="#F36623"/>
<path d="M95.7642 48.5489C98.8874 48.5489 101.494 46.434 102.306 43.5813H106.142V59.8122C106.142 60.8205 106.978 61.6566 107.987 61.6566C108.995 61.6566 109.831 60.8205 109.831 59.8122V41.7369C109.831 40.7286 108.995 39.8924 107.987 39.8924H102.306C101.494 37.0397 98.8874 34.9248 95.7642 34.9248C92.0016 34.9248 88.9521 37.9742 88.9521 41.7369C88.9521 45.4995 92.0262 48.5489 95.7642 48.5489ZM95.7642 38.5891C97.4857 38.5891 98.8874 39.9908 98.8874 41.7123C98.8874 43.4337 97.4857 44.8355 95.7642 44.8355C94.0428 44.8355 92.641 43.4337 92.641 41.7123C92.641 39.9908 94.0428 38.5891 95.7642 38.5891Z" fill="#F36623"/>
</svg>
