<svg width="140" height="148" viewBox="0 0 140 148" fill="none" xmlns="http://www.w3.org/2000/svg">
<path fill-rule="evenodd" clip-rule="evenodd" d="M35.3534 40.5732L34.5854 36.9552H29.0053L28.2373 40.5732C28.1695 40.8894 28.0145 41.1803 27.7898 41.4129C27.5651 41.6454 27.2797 41.8103 26.9661 41.8889C26.4179 42.0545 25.8839 42.2441 25.3642 42.4579C24.8222 42.6823 24.2924 42.9354 23.7772 43.2161C23.5037 43.3651 23.195 43.4373 22.8838 43.4252C22.5725 43.413 22.2704 43.3169 22.0093 43.147L18.9027 41.1324L14.9557 45.0794L16.9769 48.186C17.1516 48.4556 17.2478 48.7686 17.2548 49.0898C17.2617 49.411 17.1792 49.7279 17.0164 50.0049C16.7467 50.5039 16.5029 51.0166 16.2862 51.5409C16.0608 52.086 15.8642 52.6427 15.6974 53.2085C15.6093 53.5079 15.4418 53.778 15.2129 53.9902C14.9839 54.2024 14.7019 54.3488 14.3966 54.414L10.7785 55.182V60.7604L14.3966 61.5284C14.7127 61.5963 15.0035 61.7514 15.236 61.9761C15.4685 62.2008 15.6335 62.486 15.7122 62.7996C16.0424 63.9059 16.4872 64.9746 17.0394 65.9885C17.1884 66.262 17.2607 66.5707 17.2485 66.8819C17.2363 67.1932 17.1402 67.4953 16.9703 67.7564L14.9541 70.8696L18.9011 74.8165L22.0077 72.797C22.2767 72.6217 22.5894 72.5249 22.9104 72.5177C23.2315 72.5104 23.5482 72.5929 23.8249 72.7559C24.8445 73.3051 25.9188 73.7461 27.0302 74.0715C27.3298 74.1594 27.6001 74.3267 27.8123 74.5558C28.0245 74.7848 28.1708 75.067 28.2357 75.3724L29.0037 78.9905H34.5837L35.3517 75.3724C35.42 75.0564 35.5752 74.7659 35.7999 74.5334C36.0245 74.3009 36.3096 74.1358 36.623 74.0567C37.7288 73.7262 38.7975 73.282 39.8118 72.7312C40.0852 72.582 40.3938 72.5094 40.7051 72.5213C41.0163 72.5332 41.3185 72.629 41.5797 72.7986L44.688 74.8165L48.6349 70.8696L46.6154 67.763C46.4401 67.4939 46.3434 67.1812 46.3361 66.8602C46.3288 66.5391 46.4113 66.2224 46.5743 65.9457C46.8407 65.4523 47.0858 64.9376 47.3045 64.4097C47.5299 63.864 47.7265 63.3068 47.8932 62.7404C47.9811 62.4408 48.1484 62.1706 48.3775 61.9583C48.6065 61.7461 48.8887 61.5998 49.1941 61.535L52.8122 60.767V55.1853L49.1941 54.4173C48.8781 54.349 48.5876 54.1937 48.3551 53.9691C48.1226 53.7445 47.9575 53.4594 47.8784 53.146C47.7165 52.6021 47.5266 52.0669 47.3094 51.5425C47.0844 51.0008 46.8313 50.4711 46.5513 49.9555C46.4023 49.682 46.33 49.3733 46.3422 49.0621C46.3543 48.7508 46.4505 48.4487 46.6203 48.1876L48.6399 45.081L44.6929 41.134L41.5814 43.1536C41.3122 43.3285 40.9996 43.4251 40.6786 43.4323C40.3576 43.4396 40.041 43.3573 39.7641 43.1947C39.2644 42.9247 38.7511 42.6805 38.2264 42.4629C37.6811 42.2379 37.1245 42.0414 36.5588 41.8741C36.2591 41.7864 35.9888 41.6191 35.7765 41.3901C35.5643 41.161 35.4181 40.8787 35.3534 40.5732ZM31.7945 44.2374C34.9727 44.237 38.0527 45.3387 40.5096 47.3546C42.9666 49.3706 44.6486 52.1761 45.2689 55.2931C45.8893 58.4101 45.4096 61.6459 43.9117 64.4489C42.4138 67.2519 39.9903 69.4489 37.0542 70.6654C34.1181 71.8819 30.851 72.0427 27.8096 71.1204C24.7682 70.1981 22.1406 68.2498 20.3747 65.6074C18.6088 62.965 17.8137 59.792 18.125 56.6291C18.4362 53.4662 19.8345 50.5091 22.0817 48.2616C23.3555 46.9838 24.8694 45.9704 26.5363 45.2798C28.2032 44.5891 29.9902 44.2349 31.7945 44.2374ZM39.0553 50.7137C40.7343 52.3932 41.779 54.603 42.0114 56.9664C42.2439 59.3299 41.6497 61.7008 40.3301 63.6753C39.0104 65.6497 37.0471 67.1056 34.7744 67.7948C32.5018 68.484 30.0605 68.3639 27.8664 67.455C25.6724 66.5461 23.8614 64.9046 22.7419 62.8101C21.6225 60.7157 21.2638 58.2979 21.7271 55.9686C22.1904 53.6394 23.4469 51.5429 25.2826 50.0362C27.1183 48.5295 29.4197 47.7059 31.7945 47.7058C33.1433 47.7039 34.4791 47.9688 35.7252 48.485C36.9712 49.0012 38.103 49.7586 39.0553 50.7137ZM63.5857 98.8273V116.918V135.008V135.034C63.5857 140.79 56.8085 144.051 49.2911 145.852C43.587 147.144 37.7682 147.864 31.9212 148C31.8373 148 31.7567 148 31.6695 148C25.8212 147.862 20.0013 147.141 14.2963 145.847C6.77893 144.046 0 140.792 0 135.029V135.008V116.918V98.8273V80.7041C0.0877805 79.4316 0.472913 78.1975 1.12443 77.101C1.77595 76.0045 2.67568 75.0761 3.75127 74.3906C6.05576 72.7474 8.61026 71.4868 11.3163 70.6574C11.3655 70.2255 11.5147 69.8111 11.7521 69.447L13.5299 66.7137C13.3742 66.3848 13.2262 66.0559 13.0859 65.727C12.9494 65.3981 12.8194 65.0576 12.6994 64.7189L9.51056 64.0429C8.88616 63.9088 8.3265 63.565 7.92467 63.0686C7.52284 62.5722 7.30306 61.9532 7.3019 61.3146V54.6327C7.30312 53.995 7.52309 53.377 7.92506 52.8819C8.32704 52.3869 8.88669 52.0447 9.51056 51.9126L12.6994 51.2367C12.8194 50.8979 12.9494 50.5607 13.0859 50.2269C13.2224 49.893 13.3737 49.5608 13.5299 49.2401L11.7521 46.5069C11.4229 46.0038 11.2664 45.4072 11.3061 44.8073C11.3459 44.2074 11.5798 43.6368 11.9725 43.1815C12.0168 43.1243 12.064 43.0694 12.1139 43.0171L16.8371 38.2922C17.2863 37.8396 17.8781 37.5562 18.5123 37.4899C19.1465 37.4237 19.7841 37.5787 20.317 37.9288L23.0503 39.7049C23.3792 39.5405 23.7082 39.4007 24.0371 39.2625C24.366 39.1244 24.7064 38.9945 25.0452 38.876L25.7211 35.6856C25.855 35.0623 26.1979 34.5035 26.6929 34.1017C27.1879 33.7 27.8054 33.4796 28.4429 33.4769H35.1346C35.7722 33.4796 36.3896 33.7 36.8846 34.1017C37.3797 34.5035 37.7225 35.0623 37.8564 35.6856L38.5323 38.876C38.8612 38.9945 39.2066 39.1244 39.5388 39.2625C39.871 39.4007 40.2065 39.5487 40.5338 39.7049L43.2671 37.9288C43.7694 37.5984 44.3659 37.4412 44.9659 37.4809C45.5658 37.5207 46.1364 37.7553 46.5907 38.1492C46.6487 38.192 46.7036 38.2387 46.7552 38.2889L51.48 43.0138C51.9324 43.4631 52.2157 44.0547 52.2822 44.6887C52.3488 45.3228 52.1944 45.9603 51.8451 46.4937L50.0674 49.227C50.2236 49.5559 50.3716 49.8848 50.5098 50.2137C50.6479 50.5426 50.7778 50.8847 50.8979 51.2235L54.0867 51.8994C54.7106 52.0315 55.2702 52.3737 55.6722 52.8688C56.0742 53.3638 56.2941 53.9818 56.2954 54.6195V61.3146C56.2927 61.9521 56.0722 62.5696 55.6705 63.0646C55.2688 63.5596 54.71 63.9025 54.0867 64.0364L50.8979 64.7123C50.7784 65.0511 50.649 65.3871 50.5098 65.7204C50.3705 66.0537 50.2231 66.3826 50.0674 66.7071L51.8451 69.4404C52.0828 69.8042 52.2316 70.2189 52.2793 70.6508C54.9855 71.48 57.54 72.7406 59.8443 74.384C60.919 75.0713 61.8173 76.0012 62.4671 77.0988C63.1169 78.1965 63.5001 79.4314 63.5857 80.7041V98.8273ZM12.9461 73.7624L16.8371 77.6551C17.2905 78.1063 17.8849 78.3884 18.5212 78.4543C19.1539 78.5202 19.79 78.3657 20.322 78.0169L23.0553 76.2391C23.3842 76.3953 23.7131 76.5433 24.042 76.6831C24.3709 76.8229 24.7113 76.9495 25.0501 77.0696L25.726 80.2601C25.8602 80.8831 26.2033 81.4415 26.6983 81.8429C27.1933 82.2443 27.8105 82.4645 28.4478 82.4671H35.1346C35.7719 82.4645 36.3892 82.2443 36.8842 81.8429C37.3792 81.4415 37.7222 80.8831 37.8564 80.2601L38.5323 77.0696C38.8612 76.9495 39.2066 76.8213 39.5388 76.6831C39.871 76.545 40.2065 76.3953 40.5338 76.2391L43.2671 78.0169C43.801 78.3655 44.4386 78.5199 45.0729 78.454C45.7071 78.3881 46.2994 78.106 46.7503 77.6551L50.643 73.7624C53.1786 74.4859 55.5754 75.6282 57.7344 77.142C58.376 77.5211 58.9238 78.0403 59.3367 78.6609C59.7496 79.2814 60.017 79.9871 60.119 80.7255V80.737C60.119 83.0509 57.1834 85.3073 52.4471 87.0834C45.797 89.3246 38.8109 90.4044 31.7945 90.2755C24.7785 90.4067 17.7923 89.3291 11.142 87.09C6.40232 85.3056 3.47005 83.0476 3.47005 80.737C3.57073 79.9959 3.83823 79.2873 4.25243 78.6646C4.66662 78.0419 5.21671 77.5213 5.86126 77.142C8.02104 75.6285 10.4183 74.4863 12.9543 73.7624H12.9461ZM116.809 54.6228C117.041 54.6157 117.273 54.6552 117.489 54.7392C117.706 54.8231 117.903 54.9497 118.07 55.1114C118.237 55.2732 118.37 55.4668 118.46 55.6807C118.551 55.8947 118.597 56.1247 118.597 56.357C118.597 56.5894 118.551 56.8193 118.46 57.0333C118.37 57.2473 118.237 57.4409 118.07 57.6026C117.903 57.7644 117.706 57.891 117.489 57.9749C117.273 58.0588 117.041 58.0984 116.809 58.0912H88.7296C88.2789 58.0774 87.8513 57.8886 87.5374 57.5648C87.2235 57.2411 87.048 56.8079 87.048 56.357C87.048 55.9061 87.2235 55.4729 87.5374 55.1492C87.8513 54.8255 88.2789 54.6367 88.7296 54.6228H116.809ZM116.809 45.2882C117.269 45.2882 117.711 45.471 118.036 45.7964C118.361 46.1218 118.544 46.5631 118.544 47.0233C118.544 47.4834 118.361 47.9247 118.036 48.2501C117.711 48.5755 117.269 48.7583 116.809 48.7583H88.7296C88.2695 48.7583 87.8281 48.5755 87.5028 48.2501C87.1774 47.9247 86.9946 47.4834 86.9946 47.0233C86.9946 46.5631 87.1774 46.1218 87.5028 45.7964C87.8281 45.471 88.2695 45.2882 88.7296 45.2882H116.809ZM116.809 35.9553C117.041 35.9481 117.273 35.9877 117.489 36.0716C117.706 36.1556 117.903 36.2822 118.07 36.4439C118.237 36.6056 118.37 36.7992 118.46 37.0132C118.551 37.2272 118.597 37.4571 118.597 37.6895C118.597 37.9218 118.551 38.1518 118.46 38.3658C118.37 38.5797 118.237 38.7733 118.07 38.9351C117.903 39.0968 117.706 39.2234 117.489 39.3073C117.273 39.3913 117.041 39.4308 116.809 39.4237H88.7296C88.2789 39.4098 87.8513 39.221 87.5374 38.8973C87.2235 38.5736 87.048 38.1404 87.048 37.6895C87.048 37.2386 87.2235 36.8054 87.5374 36.4817C87.8513 36.158 88.2789 35.9692 88.7296 35.9553H116.809ZM116.809 26.6207C117.041 26.6135 117.273 26.6531 117.489 26.737C117.706 26.821 117.903 26.9476 118.07 27.1093C118.237 27.2711 118.37 27.4646 118.46 27.6786C118.551 27.8926 118.597 28.1226 118.597 28.3549C118.597 28.5872 118.551 28.8172 118.46 29.0312C118.37 29.2451 118.237 29.4387 118.07 29.6005C117.903 29.7622 117.706 29.8888 117.489 29.9728C117.273 30.0567 117.041 30.0963 116.809 30.0891H88.7296C88.2789 30.0752 87.8513 29.8864 87.5374 29.5627C87.2235 29.239 87.048 28.8058 87.048 28.3549C87.048 27.904 87.2235 27.4708 87.5374 27.1471C87.8513 26.8234 88.2789 26.6346 88.7296 26.6207H116.809ZM111.9 5.57017V14.5709H122.108L111.9 5.56688V5.57017ZM124.961 18.041H111.607C110.764 18.0401 109.955 17.7047 109.359 17.1084C108.763 16.5121 108.428 15.7036 108.427 14.8604V3.46183H80.5446C80.5097 3.46308 80.4755 3.47129 80.4438 3.48598C80.4122 3.50066 80.3838 3.52153 80.3604 3.54735C80.2923 3.62105 80.2557 3.71842 80.2584 3.8187V67.8731C80.2557 67.9734 80.2923 68.0708 80.3604 68.1445C80.3847 68.171 80.4142 68.1922 80.447 68.2069C80.4798 68.2216 80.5152 68.2295 80.5512 68.23H124.67C124.706 68.2292 124.741 68.2212 124.774 68.2065C124.807 68.1918 124.836 68.1707 124.861 68.1445C124.928 68.0705 124.964 67.9732 124.961 67.8731V18.041ZM111.364 0.481865C111.042 0.171706 110.612 -0.00109291 110.165 5.20187e-06H80.5446C80.0448 0.00193042 79.5505 0.104906 79.0916 0.302739C78.6326 0.500573 78.2184 0.789179 77.8738 1.15121C77.1752 1.87006 76.7841 2.83277 76.7834 3.83515V59.2572C74.0664 60.2394 71.5352 61.6746 69.2973 63.5019C68.2936 64.2635 67.4675 65.2342 66.8763 66.3468C66.285 67.4594 65.9428 68.6873 65.8733 69.9453V91.0254V112.086V133.148V133.179C65.8733 139.713 73.662 143.43 82.2993 145.497C88.9204 146.998 95.6746 147.836 102.462 147.997C102.559 147.997 102.656 147.997 102.751 147.997C109.539 147.836 116.294 146.998 122.915 145.497C131.553 143.43 139.34 139.713 139.34 133.179V133.148V112.086V91.0254V69.9322C139.271 68.674 138.928 67.4461 138.337 66.3334C137.746 65.2208 136.92 64.2501 135.916 63.4887C133.679 61.6611 131.148 60.2259 128.431 59.2441V16.3027C128.431 16.0564 128.379 15.813 128.277 15.5887C128.176 15.3644 128.027 15.1643 127.842 15.0018L111.364 0.481865ZM128.431 62.9855C130.315 63.7525 132.073 64.7992 133.645 66.0904C134.27 66.5407 134.793 67.1191 135.178 67.7872C135.563 68.4553 135.801 69.1977 135.876 69.965C135.876 72.7921 132.391 75.5122 126.757 77.6238C118.982 80.2443 110.814 81.5055 102.611 81.3521C94.409 81.5057 86.2415 80.2445 78.4675 77.6238C72.8266 75.5122 69.3417 72.7921 69.3417 69.965C69.4172 69.1977 69.6552 68.4553 70.04 67.7872C70.4248 67.1191 70.9476 66.5407 71.5734 66.0904C73.144 64.7992 74.9004 63.7524 76.7834 62.9855V67.8731C76.7841 68.8755 77.1752 69.8382 77.8738 70.5571C78.2184 70.9191 78.6326 71.2077 79.0916 71.4056C79.5505 71.6034 80.0448 71.7064 80.5446 71.7083H124.67C125.17 71.7064 125.664 71.6034 126.123 71.4056C126.582 71.2077 126.996 70.9191 127.341 70.5571C128.039 69.8382 128.431 68.8755 128.431 67.8731V62.9855ZM135.871 76.4611V91.0402C135.871 93.8623 132.382 96.5792 126.752 98.6891C118.977 101.308 110.809 102.568 102.607 102.412C94.4041 102.566 86.2366 101.305 78.4625 98.6842C72.8299 96.5742 69.3417 93.8557 69.3417 91.0304V76.4611C71.7023 78.3807 74.3806 79.8723 77.2554 80.8686C85.4151 83.6367 93.9913 84.9759 102.607 84.827C111.222 84.9761 119.798 83.637 127.958 80.8686C130.833 79.8727 133.511 78.381 135.871 76.4611ZM69.3417 97.5116C71.7029 99.43 74.381 100.921 77.2554 101.917C85.4147 104.688 93.991 106.029 102.607 105.882C111.222 106.032 119.798 104.692 127.958 101.924C130.833 100.926 133.511 99.4327 135.871 97.5116V112.089C135.871 114.913 132.382 117.63 126.752 119.74C118.977 122.359 110.809 123.619 102.607 123.466C94.4046 123.622 86.2373 122.363 78.4625 119.746C72.8299 117.635 69.345 114.916 69.3417 112.091V97.5116ZM69.3417 118.572C71.7029 120.49 74.381 121.981 77.2554 122.978C85.4143 125.75 93.9906 127.094 102.607 126.949C111.222 127.099 119.798 125.759 127.958 122.991C130.832 121.995 133.51 120.504 135.871 118.585V133.154V133.186C135.871 137.598 129.349 140.412 122.116 142.144C115.753 143.586 109.261 144.391 102.738 144.546H102.477C95.9534 144.39 89.4621 143.585 83.0986 142.142C75.8625 140.41 69.3417 137.596 69.3417 133.184V133.153V118.579V118.572ZM3.47005 86.8219V98.8273C3.47005 101.141 6.40561 103.398 11.142 105.174C17.7925 107.412 24.7786 108.489 31.7945 108.358C38.8109 108.489 45.7977 107.412 52.4487 105.174C57.1834 103.398 60.1141 101.144 60.1206 98.8322V86.8219C58.1616 88.3181 55.9795 89.4969 53.6542 90.315C46.6184 92.7028 39.2233 93.8584 31.7945 93.7308C24.3663 93.8583 16.9717 92.7027 9.93651 90.315C7.61103 89.4973 5.42882 88.3185 3.47005 86.8219ZM60.1206 104.912C58.1616 106.408 55.9795 107.587 53.6542 108.405C46.6183 110.793 39.2232 111.948 31.7945 111.819C24.3663 111.947 16.9717 110.791 9.93651 108.404C7.61114 107.586 5.42893 106.408 3.47005 104.912V116.918C3.47005 119.231 6.40561 121.488 11.142 123.264C17.7923 125.503 24.7785 126.581 31.7945 126.45C38.811 126.581 45.7978 125.503 52.4487 123.264C57.1834 121.488 60.1141 119.235 60.1206 116.923V104.912ZM3.47005 123.003V135.008V135.034C3.47005 138.675 8.98265 141.027 15.0955 142.491C20.542 143.725 26.098 144.414 31.681 144.546H31.9031C37.4868 144.413 43.0434 143.723 48.4902 142.487C54.6047 141.024 60.1173 138.672 60.1173 135.031V135.008V123.003C58.1583 124.499 55.9762 125.677 53.6509 126.496C46.6161 128.883 39.2221 130.037 31.7945 129.91C24.3663 130.037 16.9717 128.882 9.93651 126.494C7.61114 125.677 5.42893 124.498 3.47005 123.003Z" fill="#F36623"/>
</svg>
