<svg width="48" height="48" viewBox="0 0 48 48" fill="none" xmlns="http://www.w3.org/2000/svg">
<circle cx="24" cy="24" r="24" fill="#F36623" fill-opacity="0.16"/>
<mask id="mask0_267_379" style="mask-type:alpha" maskUnits="userSpaceOnUse" x="12" y="12" width="24" height="24">
<rect x="12" y="12" width="24" height="24" fill="#D9D9D9"/>
</mask>
<g mask="url(#mask0_267_379)">
<path d="M21 28H27.5C28.2 28 28.7917 27.7583 29.275 27.275C29.7583 26.7917 30 26.2 30 25.5C30 24.8 29.7583 24.2083 29.275 23.725C28.7917 23.2417 28.2 23 27.5 23H27.45C27.3167 22.15 26.9458 21.4375 26.3375 20.8625C25.7292 20.2875 25 20 24.15 20C23.45 20 22.8 20.175 22.2 20.525C21.6 20.875 21.15 21.3667 20.85 22H20.725C19.9417 22 19.2917 22.3 18.775 22.9C18.2583 23.5 18 24.2 18 25C18 25.8333 18.2917 26.5417 18.875 27.125C19.4583 27.7083 20.1667 28 21 28ZM21 26C20.7167 26 20.4792 25.9042 20.2875 25.7125C20.0958 25.5208 20 25.2833 20 25C20 24.7167 20.0958 24.4792 20.2875 24.2875C20.4792 24.0958 20.7167 24 21 24H22.25V23.75C22.25 23.2667 22.4208 22.8542 22.7625 22.5125C23.1042 22.1708 23.5167 22 24 22C24.4833 22 24.8958 22.1708 25.2375 22.5125C25.5792 22.8542 25.75 23.2667 25.75 23.75V25H27.5C27.6333 25 27.75 25.05 27.85 25.15C27.95 25.25 28 25.3667 28 25.5C28 25.6333 27.95 25.75 27.85 25.85C27.75 25.95 27.6333 26 27.5 26H21ZM16 32C15.45 32 14.9792 31.8042 14.5875 31.4125C14.1958 31.0208 14 30.55 14 30V18C14 17.45 14.1958 16.9792 14.5875 16.5875C14.9792 16.1958 15.45 16 16 16H32C32.55 16 33.0208 16.1958 33.4125 16.5875C33.8042 16.9792 34 17.45 34 18V30C34 30.55 33.8042 31.0208 33.4125 31.4125C33.0208 31.8042 32.55 32 32 32H16ZM16 30H32V18H16V30Z" fill="#F36623"/>
</g>
</svg>
