<svg width="148" height="148" viewBox="0 0 148 148" fill="none" xmlns="http://www.w3.org/2000/svg">
<mask id="mask0_325_613" style="mask-type:luminance" maskUnits="userSpaceOnUse" x="0" y="0" width="148" height="148">
<path d="M146 146V2H2V146H146Z" fill="white" stroke="white" stroke-width="4"/>
</mask>
<g mask="url(#mask0_325_613)">
<path d="M91.6348 91.9157L118.163 107.877L144.683 91.9157V123.125L118.163 139.087L91.6348 123.125V91.9157Z" stroke="#F36623" stroke-width="4" stroke-miterlimit="10" stroke-linecap="round" stroke-linejoin="round"/>
<path d="M82.8432 60.591C85.8939 59.9108 88.7476 58.7063 91.3142 57.0841L93.1509 58.9112C94.1105 59.8782 95.6851 59.8782 96.6526 58.9112L101.556 54.0113C102.516 53.0528 102.516 51.4794 101.556 50.5128L99.7195 48.6773C101.343 46.1208 102.549 43.2611 103.238 40.2132H105.829C107.19 40.2132 108.305 39.0989 108.305 37.7386V30.8069C108.305 29.4465 107.19 28.3322 105.829 28.3322H103.238C102.549 25.284 101.343 22.4246 99.7195 19.8682L101.556 18.0326C102.516 17.0741 102.516 15.4926 101.556 14.5338L96.6526 9.63418C95.6851 8.66727 94.1105 8.66727 93.1509 9.63418L91.3142 11.4613C88.7476 9.83884 85.8939 8.63461 82.8432 7.95444V5.36531C82.8432 4.00498 81.728 2.89064 80.3584 2.89064H73.4293C72.0597 2.89064 70.9445 4.00498 70.9445 5.36531V7.95444C67.894 8.63461 65.0401 9.83884 62.4735 11.4613L60.6449 9.63418C59.6771 8.66727 58.1029 8.66727 57.1351 9.63418L52.2312 14.5338C51.2718 15.4926 51.2718 17.0741 52.2312 18.0326L54.0682 19.8682C52.4445 22.4246 51.2391 25.284 50.5503 28.3322H47.9588C46.5976 28.3322 45.4824 29.4465 45.4824 30.8069V37.7386C45.4824 39.0989 46.5976 40.2132 47.9588 40.2132H50.5503C51.2391 43.2611 52.4445 46.1208 54.0682 48.6773L52.2312 50.5128C51.2718 51.4794 51.2718 53.0528 52.2312 54.0113L57.1351 58.9112C58.1029 59.8782 59.6771 59.8782 60.6449 58.9112L62.4735 57.0841C65.0401 58.7063 67.894 59.9108 70.9445 60.591V63.1804C70.9445 64.5404 72.0597 65.6548 73.4293 65.6548H80.3584C81.728 65.6548 82.8432 64.5404 82.8432 63.1804V60.591Z" stroke="#F36623" stroke-width="4" stroke-miterlimit="10" stroke-linecap="round" stroke-linejoin="round"/>
<path d="M35.6259 81.9766C39.0536 81.9766 41.85 79.1906 41.85 75.7658C41.85 72.3407 39.0536 69.555 35.6259 69.555C32.2063 69.555 29.4102 72.3407 29.4102 75.7658C29.4102 79.1906 32.2063 81.9766 35.6259 81.9766Z" stroke="#F36623" stroke-width="4" stroke-miterlimit="10" stroke-linecap="round" stroke-linejoin="round"/>
<path d="M62.1548 97.938C65.5744 97.938 68.3705 95.152 68.3705 91.7272C68.3705 88.3024 65.5744 85.5164 62.1548 85.5164C58.7271 85.5164 55.9307 88.3024 55.9307 91.7272C55.9307 95.152 58.7271 97.938 62.1548 97.938Z" stroke="#F36623" stroke-width="4" stroke-miterlimit="10" stroke-linecap="round" stroke-linejoin="round"/>
<path d="M9.10634 97.938C12.534 97.938 15.3304 95.152 15.3304 91.7272C15.3304 88.3024 12.534 85.5164 9.10634 85.5164C5.68673 85.5164 2.89062 88.3024 2.89062 91.7272C2.89062 95.152 5.68673 97.938 9.10634 97.938Z" stroke="#F36623" stroke-width="4" stroke-miterlimit="10" stroke-linecap="round" stroke-linejoin="round"/>
<path d="M40.9575 78.9696L56.8253 88.5234M14.4375 88.5234L30.3053 78.9696" stroke="#F36623" stroke-width="4" stroke-miterlimit="10" stroke-linecap="round" stroke-linejoin="round"/>
<path d="M35.6259 113.899C39.0536 113.899 41.85 111.114 41.85 107.689C41.85 104.264 39.0536 101.478 35.6259 101.478C32.2063 101.478 29.4102 104.264 29.4102 107.689C29.4102 111.114 32.2063 113.899 35.6259 113.899Z" stroke="#F36623" stroke-width="4" stroke-miterlimit="10" stroke-linecap="round" stroke-linejoin="round"/>
<path d="M35.626 113.9V132.68" stroke="#F36623" stroke-width="4" stroke-miterlimit="10" stroke-linecap="round" stroke-linejoin="round"/>
<path d="M9.10634 129.148C12.534 129.148 15.3304 126.354 15.3304 122.929C15.3304 119.512 12.534 116.718 9.10634 116.718C5.68673 116.718 2.89062 119.512 2.89062 122.929C2.89062 126.354 5.68673 129.148 9.10634 129.148Z" stroke="#F36623" stroke-width="4" stroke-miterlimit="10" stroke-linecap="round" stroke-linejoin="round"/>
<path d="M35.6259 145.109C39.0536 145.109 41.85 142.315 41.85 138.89C41.85 135.473 39.0536 132.679 35.6259 132.679C32.2063 132.679 29.4102 135.473 29.4102 138.89C29.4102 142.315 32.2063 145.109 35.6259 145.109Z" stroke="#F36623" stroke-width="4" stroke-miterlimit="10" stroke-linecap="round" stroke-linejoin="round"/>
<path d="M62.1548 129.148C65.5744 129.148 68.3705 126.354 68.3705 122.929C68.3705 119.512 65.5744 116.718 62.1548 116.718C58.7271 116.718 55.9307 119.512 55.9307 122.929C55.9307 126.354 58.7271 129.148 62.1548 129.148Z" stroke="#F36623" stroke-width="4" stroke-miterlimit="10" stroke-linecap="round" stroke-linejoin="round"/>
<path d="M14.4368 94.9312L30.3046 104.485M9.10645 116.718V97.9383M30.3046 135.687L14.4368 126.141M56.8243 126.141L40.9568 135.687M62.1546 97.9383V116.718M40.9568 104.485L56.8243 94.9312" stroke="#F36623" stroke-width="4" stroke-miterlimit="10" stroke-linecap="round" stroke-linejoin="round"/>
<path d="M91.6348 91.9155L118.163 75.9541L144.683 91.9155" stroke="#F36623" stroke-width="4" stroke-miterlimit="10" stroke-linecap="round" stroke-linejoin="round"/>
<path d="M118.164 107.877V139.087" stroke="#F36623" stroke-width="4" stroke-miterlimit="10" stroke-linecap="round" stroke-linejoin="round"/>
<path d="M76.8986 49.2427C85.3695 49.2427 92.2741 42.3352 92.2741 33.8712C92.2741 25.3988 85.3695 18.4997 76.8986 18.4997C68.4195 18.4997 61.5146 25.3988 61.5146 33.8712C61.5146 42.3352 68.4195 49.2427 76.8986 49.2427Z" stroke="#F36623" stroke-width="4" stroke-miterlimit="10" stroke-linecap="round" stroke-linejoin="round"/>
<path d="M12.4854 59.9189V68.2437M33.913 25.6035H12.4854V33.9449" stroke="#F36623" stroke-width="4" stroke-miterlimit="10" stroke-linecap="round" stroke-linejoin="round"/>
<path d="M23.9727 35.5347L33.9115 25.6039L23.9727 15.6648" stroke="#F36623" stroke-width="4" stroke-miterlimit="10" stroke-linecap="round" stroke-linejoin="round"/>
<path d="M119.877 25.6036H135.171V68.2603" stroke="#F36623" stroke-width="4" stroke-miterlimit="10" stroke-linecap="round" stroke-linejoin="round"/>
<path d="M125.224 58.3214L135.171 68.2603L145.109 58.3214" stroke="#F36623" stroke-width="4" stroke-miterlimit="10" stroke-linecap="round" stroke-linejoin="round"/>
<path d="M12.4854 46.9404V46.924" stroke="#F36623" stroke-width="4" stroke-miterlimit="10" stroke-linecap="round" stroke-linejoin="round"/>
</g>
</svg>
