<svg width="48" height="48" viewBox="0 0 48 48" fill="none" xmlns="http://www.w3.org/2000/svg">
<circle cx="24" cy="24" r="24" fill="#F36623" fill-opacity="0.16"/>
<mask id="mask0_267_323" style="mask-type:alpha" maskUnits="userSpaceOnUse" x="12" y="12" width="24" height="24">
<rect x="12" y="12" width="24" height="24" fill="#D9D9D9"/>
</mask>
<g mask="url(#mask0_267_323)">
<path d="M14 19V17C14 16.45 14.1958 15.9792 14.5875 15.5875C14.9792 15.1958 15.45 15 16 15H32C32.55 15 33.0208 15.1958 33.4125 15.5875C33.8042 15.9792 34 16.45 34 17V19H32V17H16V19H14ZM20 33V31H16C15.45 31 14.9792 30.8042 14.5875 30.4125C14.1958 30.0208 14 29.55 14 29V27H16V29H32V27H34V29C34 29.55 33.8042 30.0208 33.4125 30.4125C33.0208 30.8042 32.55 31 32 31H28V33H20ZM16.8 23L19.4 20.4L18 19L14 23L18 27L19.4 25.6L16.8 23ZM31.2 23L28.6 25.6L30 27L34 23L30 19L28.6 20.4L31.2 23Z" fill="#F36623"/>
</g>
</svg>
