<svg width="48" height="48" viewBox="0 0 48 48" fill="none" xmlns="http://www.w3.org/2000/svg">
<circle cx="24" cy="24" r="24" fill="#F36623" fill-opacity="0.16"/>
<mask id="mask0_109_2365" style="mask-type:alpha" maskUnits="userSpaceOnUse" x="12" y="12" width="24" height="24">
<rect x="12" y="12" width="24" height="24" fill="#D9D9D9"/>
</mask>
<g mask="url(#mask0_109_2365)">
<path d="M20.75 35C20.25 35 19.8125 34.8375 19.4375 34.5125C19.0625 34.1875 18.8417 33.775 18.775 33.275L17 20H31L29.225 33.275C29.1583 33.775 28.9375 34.1875 28.5625 34.5125C28.1875 34.8375 27.75 35 27.25 35H20.75ZM20.75 33H27.25L28.7 22H19.275L20.75 33ZM24 28C24.8333 28 25.5417 27.7083 26.125 27.125C26.7083 26.5417 27 25.8333 27 25V23H25V25C25 25.2833 24.9042 25.5208 24.7125 25.7125C24.5208 25.9042 24.2833 26 24 26C23.7167 26 23.4792 25.9042 23.2875 25.7125C23.0958 25.5208 23 25.2833 23 25V23H21V25C21 25.8333 21.2917 26.5417 21.875 27.125C22.4583 27.7083 23.1667 28 24 28ZM27 19C26.5833 19 26.2292 18.8542 25.9375 18.5625C25.6458 18.2708 25.5 17.9167 25.5 17.5C25.5 17.0833 25.6458 16.7292 25.9375 16.4375C26.2292 16.1458 26.5833 16 27 16C27.4167 16 27.7708 16.1458 28.0625 16.4375C28.3542 16.7292 28.5 17.0833 28.5 17.5C28.5 17.9167 28.3542 18.2708 28.0625 18.5625C27.7708 18.8542 27.4167 19 27 19ZM22 18C21.3 18 20.7083 17.7583 20.225 17.275C19.7417 16.7917 19.5 16.2 19.5 15.5C19.5 14.8 19.7417 14.2083 20.225 13.725C20.7083 13.2417 21.3 13 22 13C22.7 13 23.2917 13.2417 23.775 13.725C24.2583 14.2083 24.5 14.8 24.5 15.5C24.5 16.2 24.2583 16.7917 23.775 17.275C23.2917 17.7583 22.7 18 22 18Z" fill="#F36623"/>
</g>
</svg>
