<svg width="40" height="40" viewBox="0 0 40 40" fill="none" xmlns="http://www.w3.org/2000/svg">
<circle opacity="0.16" cx="20" cy="20" r="20" fill="#F36623"/>
<mask id="mask0_130_676" style="mask-type:alpha" maskUnits="userSpaceOnUse" x="4" y="4" width="32" height="32">
<rect x="4" y="4" width="32" height="32" fill="#D9D9D9"/>
</mask>
<g mask="url(#mask0_130_676)">
<path d="M20.0003 25.9665C22.2003 24.1887 23.8614 22.4776 24.9837 20.8332C26.1059 19.1887 26.667 17.6443 26.667 16.1998C26.667 14.9554 26.4392 13.8943 25.9837 13.0165C25.5281 12.1387 24.967 11.4276 24.3003 10.8832C23.6337 10.3387 22.9114 9.94428 22.1337 9.69984C21.3559 9.45539 20.6448 9.33317 20.0003 9.33317C19.3559 9.33317 18.6448 9.45539 17.867 9.69984C17.0892 9.94428 16.367 10.3387 15.7003 10.8832C15.0337 11.4276 14.4725 12.1387 14.017 13.0165C13.5614 13.8943 13.3337 14.9554 13.3337 16.1998C13.3337 17.6443 13.8948 19.1887 15.017 20.8332C16.1392 22.4776 17.8003 24.1887 20.0003 25.9665ZM20.0003 29.3332C16.867 27.0221 14.5281 24.7776 12.9837 22.5998C11.4392 20.4221 10.667 18.2887 10.667 16.1998C10.667 14.6221 10.9503 13.2387 11.517 12.0498C12.0837 10.8609 12.8114 9.8665 13.7003 9.0665C14.5892 8.2665 15.5892 7.6665 16.7003 7.2665C17.8114 6.8665 18.9114 6.6665 20.0003 6.6665C21.0892 6.6665 22.1892 6.8665 23.3003 7.2665C24.4114 7.6665 25.4114 8.2665 26.3003 9.0665C27.1892 9.8665 27.917 10.8609 28.4837 12.0498C29.0503 13.2387 29.3337 14.6221 29.3337 16.1998C29.3337 18.2887 28.5614 20.4221 27.017 22.5998C25.4725 24.7776 23.1337 27.0221 20.0003 29.3332ZM20.0003 18.6665C20.7337 18.6665 21.3614 18.4054 21.8837 17.8832C22.4059 17.3609 22.667 16.7332 22.667 15.9998C22.667 15.2665 22.4059 14.6387 21.8837 14.1165C21.3614 13.5943 20.7337 13.3332 20.0003 13.3332C19.267 13.3332 18.6392 13.5943 18.117 14.1165C17.5948 14.6387 17.3337 15.2665 17.3337 15.9998C17.3337 16.7332 17.5948 17.3609 18.117 17.8832C18.6392 18.4054 19.267 18.6665 20.0003 18.6665ZM10.667 33.3332V30.6665H29.3337V33.3332H10.667Z" fill="#F36623"/>
</g>
</svg>
