<svg width="40" height="40" viewBox="0 0 40 40" fill="none" xmlns="http://www.w3.org/2000/svg">
<circle opacity="0.16" cx="20" cy="20" r="20" fill="#F36623"/>
<mask id="mask0_130_674" style="mask-type:alpha" maskUnits="userSpaceOnUse" x="4" y="4" width="32" height="32">
<rect x="4" y="4" width="32" height="32" fill="#D9D9D9"/>
</mask>
<g mask="url(#mask0_130_674)">
<path d="M9.33366 30.6668C8.60033 30.6668 7.97255 30.4057 7.45033 29.8835C6.9281 29.3613 6.66699 28.7335 6.66699 28.0002V12.0002C6.66699 11.2668 6.9281 10.6391 7.45033 10.1168C7.97255 9.59461 8.60033 9.3335 9.33366 9.3335H30.667C31.4003 9.3335 32.0281 9.59461 32.5503 10.1168C33.0725 10.6391 33.3337 11.2668 33.3337 12.0002V28.0002C33.3337 28.7335 33.0725 29.3613 32.5503 29.8835C32.0281 30.4057 31.4003 30.6668 30.667 30.6668H9.33366ZM20.0003 21.3335L9.33366 14.6668V28.0002H30.667V14.6668L20.0003 21.3335ZM20.0003 18.6668L30.667 12.0002H9.33366L20.0003 18.6668ZM9.33366 14.6668V12.0002V28.0002V14.6668Z" fill="#F36623"/>
</g>
</svg>
