<svg width="393" height="852" viewBox="0 0 393 852" fill="none" xmlns="http://www.w3.org/2000/svg">
<g clip-path="url(#clip0_397_1983)">
<rect width="393" height="852" fill="#111010"/>
<g opacity="0.95" filter="url(#filter0_f_397_1983)">
<ellipse cx="116.191" cy="278.971" rx="116.191" ry="278.971" transform="matrix(0.825117 -0.564962 0.61451 0.788909 106.112 220.832)" fill="#F36623"/>
</g>
<path d="M89.8819 177.102C88.8545 173.085 84.89 170.629 81.027 171.617C77.164 172.604 74.8652 176.662 75.8926 180.68C76.9201 184.697 80.8845 187.153 84.7476 186.165C88.6106 185.177 90.9093 181.12 89.8819 177.102Z" fill="#F36623"/>
<path d="M14.0322 230.183C13.4392 227.864 14.7115 225.538 16.8759 224.985C19.0404 224.431 21.2732 225.861 21.8662 228.18C22.4593 230.499 21.1869 232.825 19.0224 233.378C16.858 233.932 14.6253 232.502 14.0322 230.183Z" fill="#F36623"/>
<path d="M39.3915 269.622C36.2905 269.676 33.8308 272.254 33.8975 275.38C33.9642 278.507 36.5322 280.998 39.6332 280.945C42.7342 280.891 45.1939 278.314 45.1272 275.187C45.0605 272.06 42.4925 269.569 39.3915 269.622Z" fill="#F36623"/>
<path d="M82.6091 178.963L-35.8125 221.766" stroke="#F36623" stroke-opacity="0.32" stroke-width="1.16888" stroke-linecap="round"/>
<path d="M18.0195 229.463L-35.8146 221.768" stroke="#F36623" stroke-opacity="0.32" stroke-width="1.16888" stroke-linecap="round"/>
<path d="M162.15 252.219L82.6078 178.962" stroke="#F36623" stroke-opacity="0.32" stroke-width="1.16888" stroke-linecap="round"/>
<path d="M82.608 178.963L18.0205 229.461" stroke="#F36623" stroke-opacity="0.32" stroke-width="1.16888" stroke-linecap="round"/>
<path d="M162.15 252.217L18.0202 229.459" stroke="#F36623" stroke-opacity="0.32" stroke-width="1.16888" stroke-linecap="round"/>
<path d="M-39.1927 166.591L18.0205 229.462" stroke="#F36623" stroke-opacity="0.32" stroke-width="1.16888" stroke-linecap="round"/>
<path d="M-18.7876 157.794L18.0205 229.46" stroke="#F36623" stroke-opacity="0.32" stroke-width="1.16888" stroke-linecap="round"/>
<path d="M82.6072 178.961L39.2793 275.293" stroke="#F36623" stroke-opacity="0.32" stroke-width="1.16888" stroke-linecap="round"/>
<path d="M162.151 252.22L39.2808 275.295" stroke="#F36623" stroke-opacity="0.32" stroke-width="1.16888" stroke-linecap="round"/>
<path d="M18.0187 229.461L39.2783 275.295" stroke="#F36623" stroke-opacity="0.32" stroke-width="1.16888" stroke-linecap="round"/>
<path d="M162.15 252.22L118.925 367.603" stroke="#F36623" stroke-opacity="0.32" stroke-width="1.16888" stroke-linecap="round"/>
<path d="M-35.476 232.412L39.2802 275.295" stroke="#F36623" stroke-opacity="0.32" stroke-width="1.16888" stroke-linecap="round"/>
<path d="M118.925 367.602L39.2796 275.295" stroke="#F36623" stroke-opacity="0.32" stroke-width="1.16888" stroke-linecap="round"/>
<path d="M-34.6984 272.75L39.2802 275.293" stroke="#F36623" stroke-opacity="0.32" stroke-width="1.16888" stroke-linecap="round"/>
<path d="M5.28626 244.938C5.01044 243.86 5.66533 242.755 6.74391 242.479C7.8225 242.203 8.92743 242.858 9.20325 243.937C9.47908 245.015 8.82419 246.12 7.7456 246.396C6.66702 246.672 5.56209 246.017 5.28626 244.938Z" fill="#F36623" fill-opacity="0.32"/>
<path d="M78.6483 224.091C78.3321 222.855 79.0778 221.597 80.3142 221.281C81.5506 220.964 82.8087 221.71 83.1249 222.947C83.441 224.183 82.6954 225.441 81.459 225.757C80.2226 226.073 78.9645 225.328 78.6483 224.091Z" fill="#F36623" fill-opacity="0.32"/>
<path d="M57.4977 185.682C57.1419 184.291 57.9804 182.876 59.3718 182.52C60.7632 182.164 62.178 183.003 62.5338 184.394C62.8896 185.786 62.0511 187.2 60.6597 187.556C59.2683 187.912 57.8535 187.074 57.4977 185.682Z" fill="#F36623" fill-opacity="0.32"/>
<path d="M101.107 167.377C100.752 165.987 101.591 164.57 102.981 164.215C104.371 163.859 105.788 164.699 106.143 166.089C106.499 167.479 105.659 168.896 104.269 169.251C102.879 169.607 101.463 168.767 101.107 167.377Z" fill="#F36623" fill-opacity="0.32"/>
<path d="M33.2795 214.53C33.1613 214.068 33.4422 213.594 33.9043 213.475C34.3665 213.357 34.8403 213.638 34.9585 214.1C35.0767 214.562 34.7958 215.036 34.3337 215.154C33.8716 215.273 33.3976 214.992 33.2795 214.53Z" fill="#F36623" fill-opacity="0.32"/>
<path d="M153.203 177.602C152.808 176.057 151.235 175.125 149.69 175.52C148.145 175.915 147.213 177.488 147.608 179.033C148.003 180.578 149.576 181.511 151.121 181.116C152.666 180.72 153.599 179.147 153.203 177.602Z" fill="#F36623" fill-opacity="0.32"/>
<path d="M36.7796 123.317C36.3845 121.771 34.8115 120.839 33.2662 121.234C31.721 121.629 30.7888 123.202 31.1839 124.748C31.5791 126.293 33.152 127.225 34.6972 126.83C36.2424 126.435 37.1748 124.862 36.7796 123.317Z" fill="#F36623" fill-opacity="0.32"/>
<path d="M38.7943 159.168C38.3991 157.623 36.8261 156.691 35.2809 157.086C33.7357 157.481 32.8034 159.054 33.1986 160.599C33.5937 162.144 35.1667 163.077 36.7119 162.681C38.2571 162.286 39.1894 160.713 38.7943 159.168Z" fill="#F36623" fill-opacity="0.32"/>
</g>
<defs>
<filter id="filter0_f_397_1983" x="-40.4269" y="-71.8419" width="827.682" height="894.225" filterUnits="userSpaceOnUse" color-interpolation-filters="sRGB">
<feFlood flood-opacity="0" result="BackgroundImageFix"/>
<feBlend mode="normal" in="SourceGraphic" in2="BackgroundImageFix" result="shape"/>
<feGaussianBlur stdDeviation="108.694" result="effect1_foregroundBlur_397_1983"/>
</filter>
<clipPath id="clip0_397_1983">
<rect width="393" height="852" fill="white"/>
</clipPath>
</defs>
</svg>
