<svg width="40" height="40" viewBox="0 0 40 40" fill="none" xmlns="http://www.w3.org/2000/svg">
<circle opacity="0.16" cx="20" cy="20" r="20" fill="#F36623"/>
<mask id="mask0_130_675" style="mask-type:alpha" maskUnits="userSpaceOnUse" x="4" y="4" width="32" height="32">
<rect x="4" y="4" width="32" height="32" fill="#D9D9D9"/>
</mask>
<g mask="url(#mask0_130_675)">
<path d="M30.6 32C27.8222 32 25.0778 31.3944 22.3667 30.1833C19.6556 28.9722 17.1889 27.2556 14.9667 25.0333C12.7444 22.8111 11.0278 20.3444 9.81667 17.6333C8.60556 14.9222 8 12.1778 8 9.4C8 9 8.13333 8.66667 8.4 8.4C8.66667 8.13333 9 8 9.4 8H14.8C15.1111 8 15.3889 8.10556 15.6333 8.31667C15.8778 8.52778 16.0222 8.77778 16.0667 9.06667L16.9333 13.7333C16.9778 14.0889 16.9667 14.3889 16.9 14.6333C16.8333 14.8778 16.7111 15.0889 16.5333 15.2667L13.3 18.5333C13.7444 19.3556 14.2722 20.15 14.8833 20.9167C15.4944 21.6833 16.1667 22.4222 16.9 23.1333C17.5889 23.8222 18.3111 24.4611 19.0667 25.05C19.8222 25.6389 20.6222 26.1778 21.4667 26.6667L24.6 23.5333C24.8 23.3333 25.0611 23.1833 25.3833 23.0833C25.7056 22.9833 26.0222 22.9556 26.3333 23L30.9333 23.9333C31.2444 24.0222 31.5 24.1833 31.7 24.4167C31.9 24.65 32 24.9111 32 25.2V30.6C32 31 31.8667 31.3333 31.6 31.6C31.3333 31.8667 31 32 30.6 32ZM12.0333 16L14.2333 13.8L13.6667 10.6667H10.7C10.8111 11.5778 10.9667 12.4778 11.1667 13.3667C11.3667 14.2556 11.6556 15.1333 12.0333 16ZM23.9667 27.9333C24.8333 28.3111 25.7167 28.6111 26.6167 28.8333C27.5167 29.0556 28.4222 29.2 29.3333 29.2667V26.3333L26.2 25.7L23.9667 27.9333Z" fill="#F36623"/>
</g>
</svg>
